<?xml version="1.0" encoding="utf-8"?>
<!-- Generator: Adobe Illustrator 27.6.1, SVG Export Plug-In . SVG Version: 6.00 Build 0)  -->
<svg version="1.1" id="Layer_1" xmlns="http://www.w3.org/2000/svg" xmlns:xlink="http://www.w3.org/1999/xlink" x="0px" y="0px"
	 viewBox="0 0 200 200" style="enable-background:new 0 0 200 200;" xml:space="preserve">
<style type="text/css">
	.st0{fill:#4A4A48;}
	.st1{fill:#A68E6D;}
</style>
<path class="st0" d="M53.9,136.4c-1.1,7.9-0.3,16.2,3,23.4c4.9,10.5,15.3,18.3,26.7,20.2c9.7,1.6,20.4-1.1,27.4-8.1
	s9.7-18.2,5.7-27.3c-4-9-15.1-14.6-24.5-11.5c-6.3,2.1-11.3,7.9-11.7,14.5s4.3,13.3,10.8,14.5s13.6-3.9,13.9-10.5
	c0.1,5-1.9,10.7-6.2,13.6c-11.7,7.8-28-2.1-31.7-14.3c-4.6-15.1,5.1-31.4,18.1-38.8c7.8-4.5,16.4-5.2,25.3-5.2
	c5.1,0.1,61.6,0,61.6,0.1c0,3.2,0,6.4,0,9.6c0,0-15.8-0.1-17.3-0.1c-13.7-0.1-27.4-0.1-41.1-0.3c-11.2-0.1-25.6,0.5-32.3,11.2
	c16.6-12.4,39.7-1.3,44.9,17.3c7.9,28.2-23.7,52.1-49.8,44.2c-26.5-8-38.6-39.7-30.2-64.9c2.2-6.6,5.6-12.7,9.9-18.1
	c6.5-8.1,15.1-14.4,24.8-18.2c11.5-4.5,23.6-3.8,35.7-3.9c7.6,0,15.1,0,22.7,0c10.9,0,21.8,0,32.7,0v9.4c-19.5,0-39,0-58.5,0
	c-10.5,0-20.7,0.3-30.4,4.6C68.1,104.8,56.3,119.5,53.9,136.4z"/>
<path class="st1" d="M67.3,150.9c3.7,12.2,20,22.1,31.7,14.3c4.3-2.9,6.3-8.6,6.2-13.6c-0.3,6.6-7.4,11.7-13.9,10.5
	c-6.5-1.2-11.2-7.9-10.8-14.5c0.4-6.6,5.4-12.4,11.7-14.5c9.4-3.1,20.5,2.5,24.5,11.5c4,9.1,1.3,20.3-5.7,27.3s-17.7,9.7-27.4,8.1
	c-11.4-1.9-21.8-9.7-26.7-20.2c-3.3-7.2-4.1-15.5-3-23.4c2.4-16.9,14.2-31.6,29.5-38.6c9.7-4.3,19.9-4.6,30.4-4.6h58.5V107
	c0-0.1-56.5,0-61.6-0.1c-8.9,0-17.5,0.7-25.3,5.2C72.4,119.5,62.7,135.8,67.3,150.9z"/>
</svg>
