<?xml version="1.0" encoding="utf-8"?>
<!-- Generator: Adobe Illustrator 27.6.1, SVG Export Plug-In . SVG Version: 6.00 Build 0)  -->
<svg version="1.1" id="Layer_1" xmlns="http://www.w3.org/2000/svg" xmlns:xlink="http://www.w3.org/1999/xlink" x="0px" y="0px"
	 viewBox="0 0 200 200" style="enable-background:new 0 0 200 200;" xml:space="preserve">
<style type="text/css">
	.st0{fill:#A68E6D;stroke:#494A48;stroke-width:10;stroke-miterlimit:10;}
	.st1{fill:#BE5555;stroke:#494A48;stroke-width:10;stroke-miterlimit:10;}
	.st2{fill:#BE5555;stroke:#474747;stroke-width:10;stroke-miterlimit:10;}
	.st3{fill:#7B944D;stroke:#474747;stroke-width:10;stroke-miterlimit:10;}
</style>
<path class="st0" d="M190,13v174H96c-47.5,0-86-38.9-86-87c0-48,38.5-87,86-87H190z"/>
<path class="st1" d="M158.5,42.3v114.3H96.8c-31.2,0-56.5-25.6-56.5-57.2s25.3-57.2,56.5-57.2L158.5,42.3L158.5,42.3z"/>
<circle class="st2" cx="130.9" cy="69.8" r="33.4"/>
<path class="st3" d="M146.6,56.6c4.7,14.7,8.4,26.5,8.4,26.5c14.7-4.7,22.8-20.3,18.1-35L146.6,56.6z"/>
<circle class="st2" cx="128.5" cy="132.5" r="33.4"/>
<path class="st3" d="M147.3,140.6c-11,10.7-19.9,19.4-19.9,19.4c10.7,11,28.4,11.2,39.4,0.5L147.3,140.6z"/>
<ellipse transform="matrix(0.9159 -0.4014 0.4014 0.9159 -40.9785 41.1853)" class="st2" cx="77.8" cy="118.4" rx="34.5" ry="35.4"/>
<path class="st3" d="M78.5,140c-14.9-6.1-27-11-27-11c-5.7,15.1,1.9,32.2,16.8,38.3L78.5,140z"/>
<circle class="st2" cx="86.3" cy="78.9" r="33.4"/>
<path class="st3" d="M71.6,64.8C85.7,58.6,97,53.6,97,53.6c-6.2-14.1-22.6-20.5-36.6-14.3L71.6,64.8z"/>
</svg>
