<?xml version="1.0" encoding="utf-8"?>
<!-- Generator: Adobe Illustrator 27.6.1, SVG Export Plug-In . SVG Version: 6.00 Build 0)  -->
<svg version="1.1" id="Layer_1" xmlns="http://www.w3.org/2000/svg" xmlns:xlink="http://www.w3.org/1999/xlink" x="0px" y="0px"
	 viewBox="0 0 200 200" style="enable-background:new 0 0 200 200;" xml:space="preserve">
<style type="text/css">
	.st0{fill:#6D92CD;stroke:#525252;stroke-width:10;stroke-miterlimit:10;}
	.st1{fill:none;stroke:#EDEDED;stroke-width:10;stroke-linecap:round;stroke-miterlimit:10;}
	.st2{fill:#EDEDED;}
</style>
<path class="st0" d="M113.9,175H86.1C52.5,175,25,147.5,25,113.9V86.1C25,52.5,52.5,25,86.1,25h27.8c33.6,0,61.1,27.5,61.1,61.1
	v27.8C175,147.5,147.5,175,113.9,175z"/>
<line class="st1" x1="37.5" y1="100" x2="162.5" y2="100"/>
<line class="st1" x1="140" y1="100" x2="160" y2="80"/>
<line class="st1" x1="160" y1="120" x2="140" y2="100"/>
<line class="st1" x1="60" y1="100" x2="40" y2="80"/>
<line class="st1" x1="40" y1="120" x2="60" y2="100"/>
<g>
	<g>
		<line class="st1" x1="100" y1="87" x2="60" y2="47"/>
		<line class="st1" x1="76.5" y1="63.5" x2="52" y2="63.5"/>
		<line class="st1" x1="76.5" y1="63.5" x2="76.5" y2="39"/>
	</g>
	<g>
		<line class="st1" x1="100" y1="87" x2="140" y2="47"/>
		<line class="st1" x1="123.5" y1="63.5" x2="148" y2="63.5"/>
		<line class="st1" x1="123.5" y1="63.5" x2="123.5" y2="39"/>
	</g>
</g>
<g>
	<g>
		<line class="st1" x1="100" y1="113" x2="60" y2="153"/>
		<line class="st1" x1="76.5" y1="136.5" x2="52" y2="136.5"/>
		<line class="st1" x1="76.5" y1="136.5" x2="76.5" y2="161"/>
	</g>
	<g>
		<line class="st1" x1="100" y1="113" x2="140" y2="153"/>
		<line class="st1" x1="123.5" y1="136.5" x2="148" y2="136.5"/>
		<line class="st1" x1="123.5" y1="136.5" x2="123.5" y2="161"/>
	</g>
</g>
<rect x="87.5" y="87.5" transform="matrix(0.7071 -0.7071 0.7071 0.7071 -41.4212 99.9984)" class="st2" width="25" height="25"/>
</svg>
