<?xml version="1.0" encoding="utf-8"?>
<!-- Generator: Adobe Illustrator 27.6.1, SVG Export Plug-In . SVG Version: 6.00 Build 0)  -->
<svg version="1.1" id="Layer_1" xmlns="http://www.w3.org/2000/svg" xmlns:xlink="http://www.w3.org/1999/xlink" x="0px" y="0px"
	 viewBox="0 0 200 200" style="enable-background:new 0 0 200 200;" xml:space="preserve">
<style type="text/css">
	.st0{fill:#B0B0B0;stroke:#494947;stroke-width:7;stroke-miterlimit:10;}
</style>
<path class="st0" d="M122.8,96.9c-6.4,3.3-14.6,3.5-24.3-4.3C89,85,83.2,73.6,82.2,61.4l-1.5-18.9c-0.2-2.8-1.3-5.5-3.2-7.7
	C70.8,27,60.1,20.7,55.3,18.2c-1.2-0.6-1.3-2.2-0.2-3C69.8,3.5,84.2,10.4,94,18.8c0.2-1.9,0.7-3.5,1.6-4.5
	c3.8-4.3,12.2-3.7,20.7,10.5c1.5-2,5.9-6.8,8.8-6.6c6.5,0.5,1.7,17.5,2.3,29.7c0.1,1.5,3.8-0.8,4.3-1.2c2.4-1.5,4.2-3.8,6.8-5
	c0.7-0.3,1.5-0.6,2.3-0.5c2,0.2,2.8,2.5,2.8,4.2c-0.1,3.2-1,6.4-1.5,9.6c-0.4,2.5-0.8,5-1.4,7.5c-1.2,5.1-2.7,10.1-4.6,15
	C133.3,84.6,130,93.1,122.8,96.9z"/>
<path class="st0" d="M122.8,103.1c-6.4-3.3-14.6-3.5-24.3,4.3c-9.5,7.6-15.3,19-16.3,31.2l-1.5,18.9c-0.2,2.8-1.3,5.5-3.2,7.7
	c-6.7,7.8-17.5,14.1-22.2,16.6c-1.2,0.6-1.3,2.2-0.2,3c14.7,11.7,29.1,4.7,38.9-3.6c0.2,1.9,0.7,3.5,1.6,4.5
	c3.8,4.3,12.2,3.7,20.7-10.5c1.5,2,5.9,6.8,8.8,6.6c6.5-0.5,1.7-17.5,2.3-29.7c0.1-1.5,3.8,0.8,4.3,1.2c2.4,1.5,4.2,3.8,6.8,5
	c0.7,0.3,1.5,0.6,2.3,0.5c2-0.2,2.8-2.5,2.8-4.2c-0.1-3.2-1-6.4-1.5-9.6c-0.4-2.5-0.8-5-1.4-7.5c-1.2-5.1-2.7-10.1-4.6-15
	C133.3,115.4,130,106.9,122.8,103.1z"/>
</svg>
