<?xml version="1.0" encoding="utf-8"?>
<!-- Generator: Adobe Illustrator 27.6.1, SVG Export Plug-In . SVG Version: 6.00 Build 0)  -->
<svg version="1.1" id="Layer_1" xmlns="http://www.w3.org/2000/svg" xmlns:xlink="http://www.w3.org/1999/xlink" x="0px" y="0px"
	 viewBox="0 0 200 200" style="enable-background:new 0 0 200 200;" xml:space="preserve">
<style type="text/css">
	.st0{fill:#DDCDAF;stroke:#4A4A48;stroke-width:10;stroke-miterlimit:10;}
</style>
<path class="st0" d="M123.8,90.7c6.9-7.5,16.8-21.5,7.7-31.5c-1.9-2.1-4.7-3-7.5-2.6c-9,1.4-33.9,0.8-49.8-43.4
	c-0.7-2-3.5-2-4.3-0.1c-6,15-17.1,57.9,41.6,80.6C115.8,95.3,120.7,94.1,123.8,90.7z"/>
<path class="st0" d="M123.8,109.3c6.9,7.5,16.8,21.5,7.7,31.5c-1.9,2.1-4.7,3-7.5,2.6c-9-1.4-33.9-0.8-49.8,43.4
	c-0.7,2-3.5,2-4.3,0.1c-6-15-17.1-57.9,41.6-80.6C115.8,104.7,120.7,105.9,123.8,109.3z"/>
</svg>
