<?xml version="1.0" encoding="utf-8"?>
<!-- Generator: Adobe Illustrator 27.6.1, SVG Export Plug-In . SVG Version: 6.00 Build 0)  -->
<svg version="1.1" id="Layer_1" xmlns="http://www.w3.org/2000/svg" xmlns:xlink="http://www.w3.org/1999/xlink" x="0px" y="0px"
	 viewBox="0 0 200 200" style="enable-background:new 0 0 200 200;" xml:space="preserve">
<style type="text/css">
	.st0{fill:#919191;stroke:#494947;stroke-width:10;stroke-miterlimit:10;}
	.st1{fill:#494947;}
</style>
<path class="st0" d="M182.5,91.5v17c0,3.6-2.9,6.5-6.5,6.5h-3.6c-4.5,0-6.1,6-2.2,8.2l3.1,1.8c3.1,1.8,4.2,5.8,2.4,8.9l-8.5,14.7
	c-1.8,3.1-5.8,4.2-8.9,2.4l-3.1-1.8c-3.9-2.2-8.3,2.1-6,6l1.8,3.1c1.8,3.1,0.7,7.1-2.4,8.9l-14.7,8.5c-3.1,1.8-7.1,0.7-8.9-2.4
	l-1.8-3.1c-2.2-3.9-8.2-2.3-8.2,2.2v3.6c0,3.6-2.9,6.5-6.5,6.5h-17c-3.6,0-6.5-2.9-6.5-6.5v-3.6c0-4.5-6-6.1-8.2-2.2l-1.8,3.1
	c-1.8,3.1-5.8,4.2-8.9,2.4l-14.7-8.5c-3.1-1.8-4.2-5.8-2.4-8.9l1.8-3.1c2.2-3.9-2.1-8.3-6-6l-3.1,1.8c-3.1,1.8-7.1,0.7-8.9-2.4
	l-8.5-14.7c-1.8-3.1-0.7-7.1,2.4-8.9l3.1-1.8c3.9-2.2,2.3-8.2-2.2-8.2H24c-3.6,0-6.5-2.9-6.5-6.5v-17c0-3.6,2.9-6.5,6.5-6.5h3.6
	c4.5,0,6.1-6,2.2-8.2L26.7,75c-3.1-1.8-4.2-5.8-2.4-8.9l8.5-14.7c1.8-3.1,5.8-4.2,8.9-2.4l3.1,1.8c3.9,2.2,8.3-2.1,6-6L49,41.7
	c-1.8-3.1-0.7-7.1,2.4-8.9l14.7-8.5c3.1-1.8,7.1-0.7,8.9,2.4l1.8,3.1c2.2,3.9,8.2,2.3,8.2-2.2V24c0-3.6,2.9-6.5,6.5-6.5h17
	c3.6,0,6.5,2.9,6.5,6.5v3.6c0,4.5,6,6.1,8.2,2.2l1.8-3.1c1.8-3.1,5.8-4.2,8.9-2.4l14.7,8.5c3.1,1.8,4.2,5.8,2.4,8.9l-1.8,3.1
	c-2.2,3.9,2.1,8.3,6,6l3.1-1.8c3.1-1.8,7.1-0.7,8.9,2.4l8.5,14.7c1.8,3.1,0.7,7.1-2.4,8.9l-3.1,1.8c-3.9,2.2-2.3,8.2,2.2,8.2h3.6
	C179.6,85,182.5,87.9,182.5,91.5z"/>
<circle class="st1" cx="100" cy="100" r="15"/>
</svg>
