<?xml version="1.0" encoding="utf-8"?>
<!-- Generator: Adobe Illustrator 22.0.0, SVG Export Plug-In . SVG Version: 6.00 Build 0)  -->
<svg version="1.1" id="Layer_1" xmlns="http://www.w3.org/2000/svg" xmlns:xlink="http://www.w3.org/1999/xlink" x="0px" y="0px"
	 viewBox="0 0 256 256" style="enable-background:new 0 0 256 256;" xml:space="preserve">
<style type="text/css">
	.st0{fill:#DFC655;stroke:#474747;stroke-width:25;stroke-miterlimit:10;}
	.st1{fill:#DFC655;}
</style>
<path class="st0" d="M55.8,195.1h143.7l22.4-62.2c1.2,0.4,2.4,0.6,3.7,0.6c6.8,0,12.3-5.5,12.3-12.3s-5.5-12.3-12.3-12.3
	s-12.3,5.5-12.3,12.3c0,2.7,0.9,5.2,2.3,7.2l-12.7,10.5c-17.8,14.7-29,7.9-25.5-14.9l2-12.8c0.7,0.1,1.4,0.2,2.1,0.2
	c6.8,0,12.3-5.5,12.3-12.3s-5.5-12.3-12.3-12.3s-12.3,5.5-12.3,12.3c0,3.9,1.8,7.4,4.6,9.6l-3.1,4.8c-15,22.5-26.1,13.9-30.5-8.4
	l-7.9-36.4c4.4-1.9,7.5-6.2,7.5-11.4c0-6.8-5.5-12.3-12.3-12.3s-12.3,5.5-12.3,12.3c0,5.7,3.8,10.5,9.1,11.9l-5.1,20.7
	c-4.4,19-9.8,56.8-33.8,24.6l-3.9-5.3c3.1-2.2,5.1-5.9,5.1-10c0-6.8-5.5-12.3-12.3-12.3S62,92.4,62,99.2s5.5,12.3,12.3,12.3
	c0.9,0,1.9-0.1,2.8-0.3l0.8,8.4c1.6,11.4,3.7,26.9-9.5,26.2c-6.5-0.4-9-2.6-13.9-6.1l-14.2-10.1c1.6-2.1,2.5-4.7,2.5-7.5
	c0-6.8-5.5-12.3-12.3-12.3s-12.3,5.5-12.3,12.3s5.5,12.3,12.3,12.3c1.6,0,3.1-0.3,4.5-0.9L55.8,195.1L55.8,195.1z"/>
<path class="st1" d="M55.8,195.1h143.7l22.4-62.2c1.2,0.4,2.4,0.6,3.7,0.6c6.8,0,12.3-5.5,12.3-12.3s-5.5-12.3-12.3-12.3
	s-12.3,5.5-12.3,12.3c0,2.7,0.9,5.2,2.3,7.2l-12.7,10.5c-17.8,14.7-29,7.9-25.5-14.9l2-12.8c0.7,0.1,1.4,0.2,2.1,0.2
	c6.8,0,12.3-5.5,12.3-12.3s-5.5-12.3-12.3-12.3s-12.3,5.5-12.3,12.3c0,3.9,1.8,7.4,4.6,9.6l-3.1,4.8c-15,22.5-26.1,13.9-30.5-8.4
	l-7.9-36.4c4.4-1.9,7.5-6.2,7.5-11.4c0-6.8-5.5-12.3-12.3-12.3s-12.3,5.5-12.3,12.3c0,5.7,3.8,10.5,9.1,11.9l-5.1,20.7
	c-4.4,19-9.8,56.8-33.8,24.6l-3.9-5.3c3.1-2.2,5.1-5.9,5.1-10c0-6.8-5.5-12.3-12.3-12.3S62,92.4,62,99.2s5.5,12.3,12.3,12.3
	c0.9,0,1.9-0.1,2.8-0.3l0.8,8.4c1.6,11.4,3.7,26.9-9.5,26.2c-6.5-0.4-9-2.6-13.9-6.1l-14.2-10.1c1.6-2.1,2.5-4.7,2.5-7.5
	c0-6.8-5.5-12.3-12.3-12.3s-12.3,5.5-12.3,12.3s5.5,12.3,12.3,12.3c1.6,0,3.1-0.3,4.5-0.9L55.8,195.1L55.8,195.1z"/>
</svg>
