<?xml version="1.0" encoding="utf-8"?>
<!-- Generator: Adobe Illustrator 22.0.0, SVG Export Plug-In . SVG Version: 6.00 Build 0)  -->
<svg version="1.1" id="Layer_1" xmlns="http://www.w3.org/2000/svg" xmlns:xlink="http://www.w3.org/1999/xlink" x="0px" y="0px"
	 viewBox="0 0 256 256" style="enable-background:new 0 0 256 256;" xml:space="preserve">
<style type="text/css">
	.st0{fill:#ECECEC;}
	.st1{fill:#454545;}
</style>
<path class="st0" d="M128.3,36c16.4,0.3,32.4,3,46.6,11.8c18,11.2,27.2,28.1,31.2,48.4c4.1,20.7,0.9,40.5-5.7,60.1
	c-1,3-1.5,5.7-0.8,9c2,9.5-6.3,22.1-15.9,24c-4.4,0.9-6,2.8-6.6,7c-1.7,10.9-9,16.6-19,19.5c-20.1,5.9-40.2,5.5-60.3-0.3
	c-10.7-3.1-17.8-9.4-19.1-21c-0.4-3.2-1.9-4.5-4.9-5.1c-12.1-2.7-19.4-14-16.8-26.3c0.5-2.4-0.4-4.4-1.1-6.5
	c-5-15.2-8.8-30.7-7.6-46.9c1.4-19.3,6.4-37.3,20.1-51.9c7.7-8.2,17.1-14,27.9-17.3C106.6,37.7,117.2,35.3,128.3,36z"/>
<path class="st1" d="M116.6,132.9c0,5-1,9.7-3.3,14.1c-4.7,9-14,13.6-24.2,12.1c-2-0.3-3.9-0.6-5.9-1.1c-9.3-2.4-13.5-9.4-11.7-19.2
	c0.8-4.4,1.2-8.6-1.5-12.5c-0.4-0.6-0.7-1.1,0.3-1.6c7.5-3.6,14.7-8.1,23-9.7c3.8-0.7,7.6-1.1,11.5,0c7.1,1.9,11.2,7.4,11.8,15.4
	C116.6,131.3,116.6,132.1,116.6,132.9z"/>
<path class="st1" d="M182.8,124.9c-3.5,2.2-3.5,5.1-2.4,8.2c1.6,4.4,1.8,9.1,0.6,13.7c-2.5,9.1-10.7,14.2-20.3,12.8
	c-13.7-2.1-23.1-13.3-22.8-27c0.2-7.9,4.5-14.3,11.4-17c2.9-1.1,5.7-1,8.6-0.2c7.7,2.2,15.1,5.4,22.6,8.2
	C181.1,123.9,181.7,124.3,182.8,124.9z"/>
<path class="st1" d="M128.4,177.3c-1,0.7-1.3,1.9-1.8,2.9c-1.4,2.9-3.6,3.8-7.3,3.2c-2.8-0.5-4.7-2.6-5-5.4c-0.4-3.3-0.1-6.5,1-9.6
	c2.3-6.6,4.8-13.1,7.5-19.6c0.7-1.8,1.8-3.5,3.4-4.6c2.2-1.5,4.3-1,5.6,1.4c4.7,9,8.6,18.4,10.1,28.6c0.2,1,0.2,2.2,0.2,3.3
	c0.2,3.7-1.3,6.1-4.3,6.8c-3.7,0.9-6.4-0.4-7.9-3.8C129.5,179.4,129.5,178.1,128.4,177.3z"/>
<path class="st1" d="M128.3,25.5c18.3,0.3,36,3.3,51.9,13.1c20,12.5,30.3,31.3,34.8,54c4.6,23.1,1,45.1-6.3,67
	c-1.1,3.3-1.7,6.4-0.9,10.1c2.2,10.6-7,24.6-17.7,26.7c-4.9,0.9-6.6,3.2-7.4,7.8c-1.9,12.1-10,18.5-21.2,21.8
	c-22.4,6.6-44.8,6.1-67.2-0.3c-12-3.4-19.8-10.5-21.3-23.3c-0.4-3.6-2.1-5-5.4-5.7c-13.5-3-21.6-15.6-18.7-29.2
	c0.6-2.7-0.4-4.9-1.2-7.2c-5.6-16.9-9.8-34.2-8.5-52.2c1.6-21.5,7.2-41.6,22.3-57.8c8.6-9.1,19.1-15.6,31-19.2
	C104.2,27.4,116,24.8,128.3,25.5z M201.2,114.8c0.3-7.2-0.7-14.3-2.2-21.3c-5.2-23.9-18.5-40.8-42.6-48.2c-14.4-4.4-29.1-5-43.9-2.9
	C87.9,46,69.3,58,60.7,82.1c-9.5,26.5-6.7,52.6,4.6,77.9c1.2,2.8,1.8,4.9,0.1,7.8c-2.4,4.2-1.2,8.6,2.4,11.6c1.9,1.5,4,2.2,6.4,2.4
	c5.1,0.5,9.6,3.1,13.5,5.8c2.6,1.8,0.7,6.6,0.9,10.1c0.4,7.5,2.3,10.3,10.3,12.7c17.2,5.1,34.7,5.6,52.2,1.6
	c15.8-3.6,17.5-6.5,16.3-20.3c-0.2-1.9-0.3-4.4,2.1-5.1c4.9-1.4,9-4.7,14.4-5.3c6.8-0.7,10-7.8,6.8-13.9c-1.2-2.3-1.4-4.1-0.2-6.5
	C197.8,146.5,200.6,130.9,201.2,114.8z"/>
</svg>
