<?xml version="1.0" encoding="utf-8"?>
<!-- Generator: Adobe Illustrator 22.0.0, SVG Export Plug-In . SVG Version: 6.00 Build 0)  -->
<svg version="1.1" id="Layer_1" xmlns="http://www.w3.org/2000/svg" xmlns:xlink="http://www.w3.org/1999/xlink" x="0px" y="0px"
	 viewBox="0 0 256 256" style="enable-background:new 0 0 256 256;" xml:space="preserve">
<style type="text/css">
	.st0{fill:#765E57;stroke:#494947;stroke-width:10;stroke-miterlimit:10;}
	.st1{fill:#6D92CD;stroke:#494947;stroke-width:10;stroke-miterlimit:10;}
</style>
<path class="st0" d="M113,247h-11c-5,0-9-4-9-9V16c0-5,4-9,9-9h11c5,0,9,4,9,9v222C122,243,118,247,113,247z"/>
<path class="st1" d="M181,205.1c0.1,6.3-1.1,25.4-17.8,38.9c-1.4,1.2-3.4,1.2-5,0.2c-6.4-4.2-27.1-14.1-78.7-10.1
	c-2.5,0.2-4.6-1.8-4.6-4.2v-53.8c0-2.5,2.1-4.4,4.6-4.2c51.6,4,72.3-5.8,78.7-10.1c1.5-1,3.5-1,5,0.2c16.7,13.5,17.9,32.7,17.8,38.9
	C181,202.3,181,203.7,181,205.1z"/>
</svg>
