<?xml version="1.0" encoding="utf-8"?>
<!-- Generator: Adobe Illustrator 22.0.0, SVG Export Plug-In . SVG Version: 6.00 Build 0)  -->
<svg version="1.1" id="Layer_1" xmlns="http://www.w3.org/2000/svg" xmlns:xlink="http://www.w3.org/1999/xlink" x="0px" y="0px"
	 viewBox="0 0 256 400" style="enable-background:new 0 0 256 400;" xml:space="preserve">
<style type="text/css">
	.st0{fill:#765E57;stroke:#494947;stroke-width:10;stroke-miterlimit:10;}
	.st1{fill:#BE5555;stroke:#494947;stroke-width:8;stroke-miterlimit:10;}
</style>
<path class="st0" d="M136.5,366h-25c-2.8,0-8-8.2-8-11l3-345c0-2.8,2.2-5,5-5h25c2.8,0,5,2.2,5,5l3,345
	C144.5,357.8,139.3,366,136.5,366z"/>
<path class="st1" d="M113.6,270l-2.3,26.1c-0.1,0.9-1,1.4-1.8,1l-32.3-16c-1-0.5-0.9-2.1,0.2-2.4l34.6-10.1
	C112.8,268.4,113.7,269.1,113.6,270z"/>
<path class="st1" d="M134.4,270l2.3,26.1c0.1,0.9,1,1.4,1.8,1l32.3-16c1-0.5,0.9-2.1-0.2-2.4L136,268.6
	C135.2,268.4,134.3,269.1,134.4,270z"/>
<path class="st1" d="M112.3,309.8l2.3,26.1c0.1,0.9-0.8,1.6-1.6,1.3l-34.6-10.1c-1.1-0.3-1.3-1.9-0.2-2.4l32.3-16
	C111.2,308.4,112.2,308.9,112.3,309.8z"/>
<path class="st1" d="M135.7,309.8l-2.3,26.1c-0.1,0.9,0.8,1.6,1.6,1.3l34.6-10.1c1.1-0.3,1.3-1.9,0.2-2.4l-32.3-16
	C136.8,308.4,135.8,308.9,135.7,309.8z"/>
</svg>
