<?xml version="1.0" encoding="utf-8"?>
<!-- Generator: Adobe Illustrator 22.0.0, SVG Export Plug-In . SVG Version: 6.00 Build 0)  -->
<svg version="1.1" id="Layer_1" xmlns="http://www.w3.org/2000/svg" xmlns:xlink="http://www.w3.org/1999/xlink" x="0px" y="0px"
	 viewBox="0 0 256 256" style="enable-background:new 0 0 256 256;" xml:space="preserve">
<style type="text/css">
	.st0{fill:#857069;stroke:#494947;stroke-width:10;stroke-miterlimit:10;}
	.st1{fill:#7E7E8F;stroke:#494947;stroke-width:10;stroke-miterlimit:10;}
	.st2{fill:none;stroke:#494947;stroke-width:10;stroke-miterlimit:10;}
</style>
<path class="st0" d="M209,128c-0.8,38.2-12.9,54-23.1,62.3c-20.8,17-32.6,7.3-57.4,27.3c-5.6,4.6-9.7,9.6-12.8,14.2
	c-1.4,2.1-4.8,1.2-4.8-1.4v-16.1c0-2.8,1.1-5.4,3-7.3c4-3.9,9.1-8.4,17-12.6c22.8-12.1,30.3-8.8,42.1-19.4
	c7.7-6.9,16.2-19.3,15.5-47c0.7-27.8-7.8-40.1-15.5-47c-11.8-10.6-19.3-7.3-42.1-19.4c-7.9-4.2-13-8.7-17-12.6c-2-1.9-3-4.6-3-7.3
	V25.6c0-2.6,3.3-3.6,4.8-1.4c3,4.5,7.1,9.6,12.8,14.2c24.8,20,36.6,10.3,57.4,27.3C196.1,74,208.2,89.8,209,128z"/>
<path class="st1" d="M220.3,175h-47.2c7.7-6.9,16.2-19.3,15.5-47c0.7-27.8-7.8-40.1-15.5-47h47.2c14.1,0-14.3,8.4-13.2,22.9
	c0.6,7.3,1.6,13.1,1.8,24.2c-0.3,11-1.3,16.9-1.8,24.2C206,166.6,234.4,175,220.3,175z"/>
<line class="st2" x1="111" y1="35" x2="111" y2="225"/>
</svg>
