<?xml version="1.0" encoding="utf-8"?>
<!-- Generator: Adobe Illustrator 22.0.0, SVG Export Plug-In . SVG Version: 6.00 Build 0)  -->
<svg version="1.1" id="Layer_1" xmlns="http://www.w3.org/2000/svg" xmlns:xlink="http://www.w3.org/1999/xlink" x="0px" y="0px"
	 viewBox="0 0 256 256" style="enable-background:new 0 0 256 256;" xml:space="preserve">
<style type="text/css">
	.st0{fill:none;stroke:#494947;stroke-width:10;stroke-miterlimit:10;}
	.st1{fill:#857069;stroke:#494947;stroke-width:10;stroke-miterlimit:10;}
	.st2{fill:#6D92CD;stroke:#494947;stroke-width:10;stroke-miterlimit:10;}
	.st3{fill:#857069;}
</style>
<line class="st0" x1="95" y1="18" x2="95" y2="238"/>
<path class="st1" d="M202.2,143H53.8c-3.2,0-5.8-2.6-5.8-5.8v-18.3c0-3.2,2.6-5.8,5.8-5.8h148.3c3.2,0,5.8,2.6,5.8,5.8v18.3
	C208,140.4,205.4,143,202.2,143z"/>
<path class="st2" d="M196.3,128c0,54.3-60.3,99.5-77.5,111.5c-2.9,2-6.5,2.9-10,2.4l-17-2.3c-1.5-0.2-2-2-0.8-2.9
	c16.2-11.3,81.3-61.9,81.3-108.7S107.2,30.6,91,19.3c-1.2-0.9-0.7-2.7,0.8-2.9l17-2.3c3.6-0.5,7.2,0.4,10,2.4
	C136.1,28.5,196.3,73.7,196.3,128z"/>
<path class="st3" d="M201.9,138H54.1c-0.6,0-1.1-0.5-1.1-1.1v-17.8c0-0.6,0.5-1.1,1.1-1.1h147.8c0.6,0,1.1,0.5,1.1,1.1v17.8
	C203,137.5,202.5,138,201.9,138z"/>
</svg>
