<?xml version="1.0" encoding="utf-8"?>
<!-- Generator: Adobe Illustrator 22.0.0, SVG Export Plug-In . SVG Version: 6.00 Build 0)  -->
<svg version="1.1" id="Layer_1" xmlns="http://www.w3.org/2000/svg" xmlns:xlink="http://www.w3.org/1999/xlink" x="0px" y="0px"
	 viewBox="0 0 256 400" style="enable-background:new 0 0 256 400;" xml:space="preserve">
<style type="text/css">
	.st0{fill:#765E57;stroke:#494947;stroke-width:10;stroke-miterlimit:10;}
	.st1{fill:#494947;}
	.st2{fill:#6D91CC;}
</style>
<path class="st0" d="M133.5,263h-11c-5,0-9-4-9-9V22c0-5,4-9,9-9h11c5,0,9,4,9,9v232C142.5,259,138.5,263,133.5,263z"/>
<path class="st1" d="M200.9,277.1l-28.8-47.4c-9.3-15.3-25.9-24.6-43.8-24.6c-28.3,0-51.2,22.9-51.2,51.2v58.3
	c0,7.2,5.3,13.5,12.4,14.3c2.7,0.3,5.3-0.2,7.6-1.3v10.9c0,6.9,5.6,13.6,12.4,14.3c2.7,0.3,5.3-0.2,7.6-1.3
	c0.3,7.4,6.5,13.3,14,13.3s13.6-5.9,14-13.3c1.8,0.9,3.8,1.3,6,1.3c7.7,0,14-6.3,14-14V283c0-2.1,2.7-3,4-1.4l8.8,11.3
	c5.7,7.3,16.8,7.2,22.3-0.2C203.5,288.2,203.8,282,200.9,277.1z M193.7,288c-2.4,3.2-7.2,3.2-9.7,0.1l-12.7-16.4
	c-4.7-6-14.3-2.7-14.3,4.9v62c0,3.1-2.2,5.8-5.2,6.2c-3.6,0.4-6.7-2.4-6.7-5.9v-46c0-2.2-1.8-4-4-4c-1.1,0-2.1,0.5-2.8,1.2
	s-1.2,1.7-1.2,2.8v57.8c0,2.8-1.9,5.4-4.7,6c-3.9,0.8-7.3-2.1-7.3-5.9V293c0-2.2-1.8-4-4-4c-1.1,0-2.1,0.5-2.8,1.2
	c-0.7,0.7-1.2,1.7-1.2,2.8v45.7c0,3.1-2.2,5.8-5.2,6.2c-3.6,0.4-6.7-2.4-6.7-5.9v-54.4c0-2.2-1.8-4-4-4l0,0c-2.2,0-4,1.8-4,4v30.2
	c0,3.1-2.2,5.8-5.2,6.2c-3.6,0.4-6.7-2.4-6.7-6v-58.7c0-23.9,19.3-43.2,43.2-43.2c15.1,0,29.1,7.9,36.9,20.8l28.8,47.4
	C195.3,283.4,195.2,286.1,193.7,288z"/>
<path class="st2" d="M193.7,288c-2.4,3.2-7.2,3.2-9.7,0.1l-12.7-16.4c-4.7-6-14.3-2.7-14.3,4.9v62c0,3.1-2.2,5.8-5.2,6.2
	c-3.6,0.4-6.7-2.4-6.7-5.9v-46c0-2.2-1.8-4-4-4c-1.1,0-2.1,0.5-2.8,1.2s-1.2,1.7-1.2,2.8v57.8c0,2.8-1.9,5.4-4.7,6
	c-3.9,0.8-7.3-2.1-7.3-5.9V293c0-2.2-1.8-4-4-4c-1.1,0-2.1,0.5-2.8,1.2c-0.7,0.7-1.2,1.7-1.2,2.8v45.7c0,3.1-2.2,5.8-5.2,6.2
	c-3.6,0.4-6.7-2.4-6.7-5.9v-54.4c0-2.2-1.8-4-4-4l0,0c-2.2,0-4,1.8-4,4v30.2c0,3.1-2.2,5.8-5.2,6.2c-3.6,0.4-6.7-2.4-6.7-6v-58.7
	c0-23.9,19.3-43.2,43.2-43.2c15.1,0,29.1,7.9,36.9,20.8l28.8,47.4C195.3,283.4,195.2,286.1,193.7,288z"/>
</svg>
