<?xml version="1.0" encoding="utf-8"?>
<!-- Generator: Adobe Illustrator 27.3.1, SVG Export Plug-In . SVG Version: 6.00 Build 0)  -->
<svg version="1.1" id="Layer_1" xmlns="http://www.w3.org/2000/svg" xmlns:xlink="http://www.w3.org/1999/xlink" x="0px" y="0px"
	 viewBox="0 0 256 256" style="enable-background:new 0 0 256 256;" xml:space="preserve">
<style type="text/css">
	.st0{fill:#C15555;stroke:#494947;stroke-width:10;stroke-miterlimit:10;}
	.st1{fill:#494947;}
	.st2{fill:#494947;stroke:#494947;stroke-width:10;stroke-miterlimit:10;}
</style>
<path class="st0" d="M208.5,143h-161c-1.1,0-2-0.9-2-2v-26c0-1.1,0.9-2,2-2h161c1.1,0,2,0.9,2,2v26C210.5,142.1,209.6,143,208.5,143
	z"/>
<rect x="190.5" y="113" class="st1" width="10" height="30"/>
<rect x="175.5" y="113" class="st1" width="10" height="30"/>
<rect x="160.5" y="113" class="st1" width="10" height="30"/>
<path class="st2" d="M86,143H47.5c-1.1,0-2-0.9-2-2v-26c0-1.1,0.9-2,2-2H86c1.1,0,2,0.9,2,2v26C88,142.1,87.1,143,86,143z"/>
</svg>
