<?xml version="1.0" encoding="utf-8"?>
<!-- Generator: Adobe Illustrator 22.0.0, SVG Export Plug-In . SVG Version: 6.00 Build 0)  -->
<svg version="1.1" id="Layer_1" xmlns="http://www.w3.org/2000/svg" xmlns:xlink="http://www.w3.org/1999/xlink" x="0px" y="0px"
	 viewBox="0 0 256 256" style="enable-background:new 0 0 256 256;" xml:space="preserve">
<style type="text/css">
	.st0{fill:#765E57;stroke:#494947;stroke-width:10;stroke-miterlimit:10;}
	.st1{fill:#7F7F92;stroke:#494947;stroke-width:10;stroke-miterlimit:10;}
</style>
<path class="st0" d="M133.5,248h-11c-5,0-9-4-9-9V17c0-5,4-9,9-9h11c5,0,9,4,9,9v222C142.5,244,138.5,248,133.5,248z"/>
<path class="st1" d="M187.5,176.8v56.5c0,3.7-3,6.8-6.8,6.8h-11.5c-3.7,0-6.8-3-6.8-6.8v-0.8h-69v0.8c0,3.7-3,6.8-6.8,6.8H75.3
	c-3.7,0-6.8-3-6.8-6.8v-56.5c0-3.7,3-6.8,6.8-6.8h11.5c3.7,0,6.8,3,6.8,6.8v0.8h69v-0.8c0-3.7,3-6.8,6.8-6.8h11.5
	C184.5,170,187.5,173,187.5,176.8z"/>
</svg>
