<?xml version="1.0" encoding="utf-8"?>
<!-- Generator: Adobe Illustrator 22.0.0, SVG Export Plug-In . SVG Version: 6.00 Build 0)  -->
<svg version="1.1" id="Layer_1" xmlns="http://www.w3.org/2000/svg" xmlns:xlink="http://www.w3.org/1999/xlink" x="0px" y="0px"
	 viewBox="0 0 256 256" style="enable-background:new 0 0 256 256;" xml:space="preserve">
<style type="text/css">
	.st0{fill:#765E57;stroke:#494947;stroke-width:10;stroke-miterlimit:10;}
	.st1{fill:#6D92CD;stroke:#494947;stroke-width:10;stroke-miterlimit:10;}
</style>
<path class="st0" d="M133.5,246h-11c-5,0-9-4-9-9V15c0-5,4-9,9-9h11c5,0,9,4,9,9v222C142.5,242,138.5,246,133.5,246z"/>
<path class="st1" d="M190.2,200c0.7,18.8-9.4,34.1-15.8,41.9c-2.6,3.1-7.2,3.6-10.5,1.3c-12.3-8.9-25.6-9.8-32-9.7
	c-2.6,0.1-5.2,0.1-7.8,0c-6.4-0.1-19.6,0.8-32,9.7c-3.3,2.4-7.9,1.9-10.5-1.3c-6.5-7.8-16.6-23.1-15.8-41.9
	c-0.7-18.8,9.4-34.1,15.8-41.9c2.6-3.1,7.1-3.6,10.5-1.3c12.3,8.9,25.6,9.8,32,9.7c2.6-0.1,5.2-0.1,7.8,0c6.4,0.1,19.6-0.8,32-9.7
	c3.3-2.4,7.9-1.9,10.5,1.3C180.8,165.9,190.9,181.2,190.2,200z"/>
</svg>
