<?xml version="1.0" encoding="utf-8"?>
<!-- Generator: Adobe Illustrator 22.0.0, SVG Export Plug-In . SVG Version: 6.00 Build 0)  -->
<svg version="1.1" id="Layer_1" xmlns="http://www.w3.org/2000/svg" xmlns:xlink="http://www.w3.org/1999/xlink" x="0px" y="0px"
	 viewBox="0 0 256 256" style="enable-background:new 0 0 256 256;" xml:space="preserve">
<style type="text/css">
	.st0{fill:#765E57;stroke:#494947;stroke-width:10;stroke-miterlimit:10;}
	.st1{fill:#6D92CD;stroke:#494947;stroke-width:10;stroke-miterlimit:10;}
</style>
<path class="st0" d="M121.5,241.5h-11c-5,0-9-4-9-9v-209c0-5,4-9,9-9h11c5,0,9,4,9,9v209C130.5,237.5,126.5,241.5,121.5,241.5z"/>
<path class="st1" d="M165.4,228H90.6c-3.6,0-6.6-3-6.6-6.6v-39.8c0-3.6,3-6.6,6.6-6.6h74.8c3.6,0,6.6,3,6.6,6.6v39.8
	C172,225,169,228,165.4,228z"/>
</svg>
