<?xml version="1.0" encoding="utf-8"?>
<!-- Generator: Adobe Illustrator 22.0.0, SVG Export Plug-In . SVG Version: 6.00 Build 0)  -->
<svg version="1.1" id="Layer_1" xmlns="http://www.w3.org/2000/svg" xmlns:xlink="http://www.w3.org/1999/xlink" x="0px" y="0px"
	 viewBox="0 0 256 400" style="enable-background:new 0 0 256 400;" xml:space="preserve">
<style type="text/css">
	.st0{fill:#765E57;stroke:#494947;stroke-width:10;stroke-miterlimit:10;}
	.st1{fill:#7E7E8F;stroke:#494947;stroke-width:10;stroke-miterlimit:10;}
</style>
<path class="st0" d="M136.4,171.5h-16.9c-3.3,0-6.1-2.7-6.1-6.1V11.7c0-3.3,2.7-6.1,6.1-6.1h17.9c2.8,0,5,2.2,5,5v154.8
	C142.5,168.8,139.8,171.5,136.4,171.5z"/>
<path class="st1" d="M127,178.3c8.5,0,15.3,7,15.1,15.5c-1.4,44.5-6.8,170.3-24.1,186.5c0,0-6.9,10.5-14.1-60.6
	c-0.1-1.3-0.1-2.7,0.1-4c1.5-8.9,7.5-48.7,8-122.4C112,185,118.8,178.3,127,178.3L127,178.3z"/>
<path class="st1" d="M154.7,186h-53.3c-3.5,0-6.3-2.9-6.3-6.3v-9.3c0-3.5,2.8-6.3,6.3-6.3h53.3c3.5,0,6.3,2.9,6.3,6.3v9.3
	C161,183.1,158.1,186,154.7,186z"/>
</svg>
