<?xml version="1.0" encoding="utf-8"?>
<!-- Generator: Adobe Illustrator 22.0.0, SVG Export Plug-In . SVG Version: 6.00 Build 0)  -->
<svg version="1.1" id="Layer_1" xmlns="http://www.w3.org/2000/svg" xmlns:xlink="http://www.w3.org/1999/xlink" x="0px" y="0px"
	 viewBox="0 0 400 400" style="enable-background:new 0 0 400 400;" xml:space="preserve">
<style type="text/css">
	.st0{fill:#765E57;stroke:#494947;stroke-width:10;stroke-miterlimit:10;}
	.st1{fill:#7E7E8F;stroke:#494947;stroke-width:10;stroke-miterlimit:10;}
</style>
<path id="handle" class="st0" d="M294,211.2l-268.3,6.6c-3.7,0.1-6.7-1.6-6.7-6.2v-23.2c0-4.6,3-6.3,6.7-6.2l268.3,6.6V211.2z"/>
<path id="metal" class="st1" d="M381,195v10c0,3.3-2.7,6-6,6H236.5c-0.1,3.3-2.9,6-6.2,6h-24.5c-3.4,0-6.1-2.7-6.2-6H183
	c-5.5,0-10-4.5-10-10v-2c0-5.5,4.5-10,10-10h16.5c0.1-3.3,2.9-6,6.2-6h24.5c3.4,0,6.1,2.7,6.2,6H375C378.3,189,381,191.7,381,195z"
	/>
</svg>
