<?xml version="1.0" encoding="utf-8"?>
<!-- Generator: Adobe Illustrator 22.0.0, SVG Export Plug-In . SVG Version: 6.00 Build 0)  -->
<svg version="1.1" id="Layer_1" xmlns="http://www.w3.org/2000/svg" xmlns:xlink="http://www.w3.org/1999/xlink" x="0px" y="0px"
	 viewBox="0 0 256 400" style="enable-background:new 0 0 256 400;" xml:space="preserve">
<style type="text/css">
	.st0{fill:#765E57;stroke:#494947;stroke-width:10;stroke-miterlimit:10;}
	.st1{fill:#7E7E8F;stroke:#494947;stroke-width:10;stroke-miterlimit:10;}
</style>
<path class="st0" d="M137,313h-18c-2.9,0-5.2-2.3-5.2-5.2V18.2c0-2.9,2.3-5.2,5.2-5.2h18c2.9,0,5.2,2.3,5.2,5.2v289.6
	C142.3,310.7,139.9,313,137,313z"/>
<path class="st1" d="M160.1,246l-16.8,28.9c-2.2,3.8-6.4,6.1-11,6.1h-8.4c-4.6,0-8.9-2.3-11-6.1l-17-28.9c-1.5-2.6,1.1-5.7,4.3-4.8
	l23.6,6.4c2.8,0.7,5.7,0.7,8.4,0l23.6-6.4C158.9,240.3,161.6,243.3,160.1,246z"/>
<path class="st1" d="M159.9,301.5l-17.2,29c-1.3,2.3-2.4,4.7-3.1,7.2l-10.3,36.8c-0.2,0.7-1.2,0.6-1.2-0.2c0,0.7-1,0.9-1.2,0.2
	l-10.3-36.8c-0.7-2.5-1.7-4.9-3.1-7.2l-17.2-29c-1.9-3.2,0.8-7.2,4.4-6.4l27.4,5.6l27.4-5.6C159,294.4,161.8,298.3,159.9,301.5z"/>
</svg>
