<?xml version="1.0" encoding="utf-8"?>
<!-- Generator: Adobe Illustrator 22.0.0, SVG Export Plug-In . SVG Version: 6.00 Build 0)  -->
<svg version="1.1" id="Layer_1" xmlns="http://www.w3.org/2000/svg" xmlns:xlink="http://www.w3.org/1999/xlink" x="0px" y="0px"
	 viewBox="0 0 256 256" style="enable-background:new 0 0 256 256;" xml:space="preserve">
<style type="text/css">
	.st0{fill:none;stroke:#494947;stroke-width:10;stroke-miterlimit:10;}
	.st1{fill:#857069;stroke:#494947;stroke-width:10;stroke-miterlimit:10;}
	.st2{fill:#6D92CD;stroke:#494947;stroke-width:10;stroke-miterlimit:10;}
	.st3{fill:#857069;}
</style>
<line class="st0" x1="95" y1="18" x2="95" y2="238"/>
<path class="st1" d="M202.2,143H53.8c-3.2,0-5.8-2.6-5.8-5.8v-18.3c0-3.2,2.6-5.8,5.8-5.8h148.3c3.2,0,5.8,2.6,5.8,5.8v18.3
	C208,140.4,205.4,143,202.2,143z"/>
<path class="st2" d="M205.5,156c-3.1,6.1-25.9,23.4-29.9,29c-2.7,3.8,19.3,0.9,16.3,4.5c-7.8,9.3-41,24.1-48.8,30.9
	c-3.4,3,17.5,2.6,14.5,5c-6,4.9-35.3,11.7-38.8,14c-2.9,2-6.5,2.9-10,2.4l-17-2.3c-1.5-0.2-2-2-0.8-2.9
	c16.2-11.3,81.3-61.9,81.3-108.7S107.2,30.6,91,19.3c-1.2-0.9-0.7-2.7,0.8-2.9l17-2.3c3.6-0.5,7.2,0.4,10,2.4
	c3.4,2.4,32.7,9.2,38.8,14c3,2.4-17.9,2.1-14.5,5c7.8,6.8,41,21.7,48.8,30.9c3,3.5-19,0.6-16.3,4.5c3.9,5.6,26.8,22.9,29.9,29
	c1.8,3.5-15.9-4.3-14.5-0.6c3.4,9.1,5.4,18.7,5.4,28.6s-2,19.5-5.4,28.6C189.6,160.3,207.3,152.5,205.5,156z"/>
<path class="st3" d="M201.9,138H54.1c-0.6,0-1.1-0.5-1.1-1.1v-17.8c0-0.6,0.5-1.1,1.1-1.1h147.8c0.6,0,1.1,0.5,1.1,1.1v17.8
	C203,137.5,202.5,138,201.9,138z"/>
</svg>
