<?xml version="1.0" encoding="utf-8"?>
<!-- Generator: Adobe Illustrator 22.0.0, SVG Export Plug-In . SVG Version: 6.00 Build 0)  -->
<svg version="1.1" id="Layer_1" xmlns="http://www.w3.org/2000/svg" xmlns:xlink="http://www.w3.org/1999/xlink" x="0px" y="0px"
	 viewBox="0 0 256 256" style="enable-background:new 0 0 256 256;" xml:space="preserve">
<style type="text/css">
	.st0{fill:#857069;stroke:#494947;stroke-width:10;stroke-miterlimit:10;}
	.st1{fill:#6D91CB;stroke:#494947;stroke-width:10;stroke-miterlimit:10;}
</style>
<path class="st0" d="M103.9,178.6H122v17.7H92.6c-3.8,0-6.9-3.1-6.9-6.9V66.6c0-3.8,3.1-6.9,6.9-6.9H122v17.7h-18.2L103.9,178.6
	L103.9,178.6z"/>
<path class="st0" d="M154.4,128c0,62.8-5.6,90.6-8.6,100.9c-0.9,3-3.7,5.1-6.8,5.1h-10.5c-3.9,0-7.1-3.2-7.1-7.1V29.1
	c0-3.9,3.2-7.1,7.1-7.1H139c3.2,0,6,2.1,6.8,5.1C148.8,37.4,154.4,65.2,154.4,128z"/>
<path class="st1" d="M172,128c0,0,1.3,52-17.5,63.8c0,0-18.5,13.1-18-48c0.1-10.6,0.1-21.1,0-31.7c-0.5-61.1,18-48,18-48
	C173.2,76,172,128,172,128z"/>
</svg>
