<?xml version="1.0" encoding="utf-8"?>
<!-- Generator: Adobe Illustrator 22.0.0, SVG Export Plug-In . SVG Version: 6.00 Build 0)  -->
<svg version="1.1" id="Layer_1" xmlns="http://www.w3.org/2000/svg" xmlns:xlink="http://www.w3.org/1999/xlink" x="0px" y="0px"
	 viewBox="0 0 256 400" style="enable-background:new 0 0 256 400;" xml:space="preserve">
<style type="text/css">
	.st0{fill:#765E57;stroke:#494947;stroke-width:10;stroke-miterlimit:10;}
	.st1{fill:#7E7E90;stroke:#494947;stroke-width:10;stroke-miterlimit:10;}
</style>
<path id="handle" class="st0" d="M136.4,230h-16.9c-3.3,0-6.1-2.7-6.1-6.1V36.1c0-3.3,2.7-6.1,6.1-6.1h17.9c2.8,0,5,2.2,5,5v188.9
	C142.5,227.3,139.8,230,136.4,230z"/>
<g>
	<path class="st1" d="M149,205.6v131.3c0,0.4-0.1,0.7-0.3,1.1l-18.8,32.4c-0.8,1.4-2.9,1.4-3.8,0L107.3,338
		c-0.2-0.3-0.3-0.7-0.3-1.1V205.6c0-1.2,1-2.1,2.2-2.1h37.7C148,203.5,149,204.5,149,205.6z"/>
	<path class="st1" d="M171.7,215H84.3c-3.5,0-6.3-2.9-6.3-6.3v-9.3c0-3.5,2.8-6.3,6.3-6.3h87.3c3.5,0,6.3,2.9,6.3,6.3v9.3
		C178,212.1,175.1,215,171.7,215z"/>
</g>
</svg>
