<?xml version="1.0" encoding="utf-8"?>
<!-- Generator: Adobe Illustrator 27.6.1, SVG Export Plug-In . SVG Version: 6.00 Build 0)  -->
<svg version="1.1" id="Layer_1" xmlns="http://www.w3.org/2000/svg" xmlns:xlink="http://www.w3.org/1999/xlink" x="0px" y="0px"
	 viewBox="0 0 280 300" style="enable-background:new 0 0 280 300;" xml:space="preserve">
<style type="text/css">
	.st0{fill:#CCC28A;stroke:#464646;stroke-width:5.6;stroke-miterlimit:10;}
	.st1{fill:#464646;}
	.st2{fill:#CCC28A;}
	.st3{opacity:0.8;fill:#E3E3E3;enable-background:new    ;}
	.st4{fill:#B0A777;}
	.st5{fill:none;stroke:#464646;stroke-width:5.6;stroke-linecap:round;stroke-miterlimit:10;}
	.st6{fill:#484848;}
	.st7{fill:#E2BF45;}
	.st8{fill:none;stroke:#464646;stroke-width:5.6;stroke-miterlimit:10;}
</style>
<g id="body_00000078030533436731216800000003030074834615444133_">
	<ellipse id="body_00000081622848406574352820000018016491346136965551_" class="st0" cx="140" cy="120" rx="70.6" ry="99.3"/>
	<circle class="st1" cx="120.1" cy="40.5" r="6.3"/>
	<circle class="st1" cx="133.7" cy="61.4" r="6.3"/>
	<circle class="st1" cx="120.1" cy="81.3" r="6.3"/>
	<circle class="st1" cx="101.3" cy="61.4" r="6.3"/>
	<circle class="st1" cx="88.8" cy="85.5" r="6.3"/>
	<circle class="st1" cx="105.5" cy="106.4" r="6.3"/>
	<circle class="st1" cx="95" cy="124.2" r="6.3"/>
	<circle class="st1" cx="105.5" cy="153.5" r="6.3"/>
	<circle class="st1" cx="82.5" cy="108.5" r="6.3"/>
	<circle class="st1" cx="130.6" cy="106.4" r="6.3"/>
	<circle class="st1" cx="121.2" cy="130.5" r="6.3"/>
	<circle class="st1" cx="143.1" cy="124.2" r="6.3"/>
	<circle class="st1" cx="163" cy="130.5" r="6.3"/>
	<circle class="st1" cx="149.4" cy="102.2" r="6.3"/>
	<circle class="st1" cx="144.2" cy="77.1" r="6.3"/>
	<circle class="st1" cx="166.1" cy="81.3" r="6.3"/>
	<circle class="st1" cx="179.7" cy="106.4" r="6.3"/>
	<circle class="st1" cx="189.1" cy="124.2" r="6.3"/>
	<circle class="st1" cx="203.8" cy="109.5" r="6.3"/>
	<circle class="st1" cx="195.4" cy="86.5" r="6.3"/>
	<circle class="st1" cx="185" cy="62.5" r="6.3"/>
	<circle class="st1" cx="164" cy="40.5" r="6.3"/>
	<circle class="st1" cx="146.3" cy="44.7" r="6.3"/>
	<circle class="st1" cx="197.5" cy="145.1" r="6.3"/>
	<circle class="st1" cx="176.6" cy="148.2" r="6.3"/>
	<circle class="st1" cx="85.6" cy="140.9" r="6.3"/>
	<circle class="st1" cx="127.5" cy="151.4" r="6.3"/>
	<circle class="st1" cx="182.9" cy="166" r="6.3"/>
	<circle class="st1" cx="180.8" cy="183.8" r="6.3"/>
	<circle class="st1" cx="155.7" cy="148.2" r="6.3"/>
	<circle class="st1" cx="143.1" cy="173.3" r="6.3"/>
	<circle class="st1" cx="95" cy="173.3" r="6.3"/>
	<circle class="st1" cx="118" cy="168.1" r="6.3"/>
	<circle class="st1" cx="126.4" cy="197.4" r="6.3"/>
</g>
<g id="head_00000039124658118214616550000011652773538595668113_">
	<g>
		<path class="st2" d="M200,210.8c0,25.5-23,35.1-38,53c-5.4,6.5-13.3,10.5-21.8,10.5h-0.3c-8.5,0-16.4-4-21.8-10.5
			c-15-17.9-38-27.5-38-53c0-35.1,26.9-63.5,60-63.5S200,175.7,200,210.8z"/>
		<path class="st3" d="M187,237.5c-31.5,31.5-10,8.1-25,26c-5.4,6.5-13.3,10.5-21.8,10.5h-0.3c-8.5,0-16.4-4-21.8-10.5
			c-15-17.9,4,3-25-26c-24.8-24.8,13.9,4,47,4S211.8,212.7,187,237.5z"/>
		<path class="st1" d="M140.2,277.1h-0.3c-9.1,0-17.9-4.2-24-11.5c-4.3-5.2-9.5-9.7-14.4-14.1c-11.9-10.6-24.2-21.5-24.2-40.7
			c0-36.6,28.2-66.3,62.8-66.3s62.7,29.7,62.7,66.3c0,19.2-12.3,30.1-24.2,40.7c-5,4.4-10.1,9-14.4,14.1
			C158.1,272.9,149.3,277.1,140.2,277.1z M140.1,150.1c-31.5,0-57.2,27.2-57.2,60.7c0,16.6,10.4,25.8,22.3,36.5
			c5.1,4.5,10.4,9.2,15,14.7c5,6,12.2,9.5,19.7,9.5h0.3c7.5,0,14.6-3.5,19.6-9.5c4.6-5.5,9.9-10.2,15-14.7
			c12-10.6,22.3-19.8,22.3-36.5C197.2,177.3,171.6,150.1,140.1,150.1z"/>
	</g>
	<g id="ear_left_00000105413635514548618170000000195613695611068593_">
		<path class="st2" d="M103.2,173.3c-7-15.3-23.7-59.1,29.8-24.4c2.3,1.5,2.5,4.6,0.4,6.4l-23.6,19.5
			C107.7,176.5,104.3,175.8,103.2,173.3z"/>
		<path class="st4" d="M108.8,168.5c-4.3-9.4-14.5-36.1,18.2-14.9c1.4,0.9,1.5,2.8,0.2,3.9l-14.4,11.9
			C111.6,170.5,109.5,170,108.8,168.5z"/>
		<path class="st1" d="M107.1,178.5c-0.6,0-1.2-0.1-1.7-0.2c-2.1-0.5-3.9-1.9-4.7-3.9c-6.4-14-12.4-32.2-4.6-39
			c6.3-5.4,18.5-1.9,38.5,11.1c1.8,1.2,3,3.1,3.1,5.2c0.1,2.1-0.7,4.2-2.4,5.6L111.6,177C110.3,178,108.7,178.5,107.1,178.5z
			 M103.4,138.7c-2,0-3.1,0.5-3.7,1.1c-3.8,3.3-1.5,16,6,32.4l0,0c0.2,0.5,0.7,0.6,0.9,0.7c0.5,0.1,1,0,1.3-0.3l23.6-19.5
			c0.3-0.3,0.5-0.6,0.4-1c0-0.4-0.2-0.7-0.6-0.9C115.8,141.1,107.6,138.7,103.4,138.7z"/>
	</g>
	<g id="ear_right_00000098926336573277987120000015894992944130084522_">
		<g>
			<path class="st1" d="M176.8,173.3c7-15.3,23.7-59.1-29.8-24.4c-2.3,1.5-2.5,4.6-0.4,6.4l23.6,19.5
				C172.3,176.5,175.7,175.8,176.8,173.3z"/>
			<path class="st1" d="M171.2,168.5c4.3-9.4,14.5-36.1-18.2-14.9c-1.4,0.9-1.5,2.8-0.2,3.9l14.4,11.9
				C168.4,170.5,170.5,170,171.2,168.5z"/>
			<path class="st1" d="M172.9,178.5c-1.6,0-3.2-0.5-4.5-1.6l-23.6-19.5c-1.7-1.5-2.6-3.5-2.5-5.7c0.1-2.1,1.3-4,3.1-5.2
				c20-13,32.2-16.5,38.5-11.1c7.8,6.8,1.8,24.9-4.6,39c-0.9,1.9-2.6,3.4-4.7,3.9C174.1,178.5,173.5,178.5,172.9,178.5z
				 M176.6,138.7c-4.2,0-12.3,2.4-28.1,12.6c-0.3,0.2-0.6,0.6-0.6,0.9c0,0.4,0.1,0.7,0.5,1l23.6,19.5c0.3,0.3,0.8,0.4,1.3,0.2
				c0.3-0.1,0.7-0.2,0.9-0.7l0,0c7.5-16.4,9.9-29.1,6-32.4C179.7,139.2,178.6,138.7,176.6,138.7z"/>
		</g>
		<g>
			<path class="st2" d="M176.8,173.3c7-15.3,23.7-59.1-29.8-24.4c-2.3,1.5-2.5,4.6-0.4,6.4l23.6,19.5
				C172.3,176.5,175.7,175.8,176.8,173.3z"/>
			<path class="st4" d="M171.2,168.5c4.3-9.4,14.5-36.1-18.2-14.9c-1.4,0.9-1.5,2.8-0.2,3.9l14.4,11.9
				C168.4,170.5,170.5,170,171.2,168.5z"/>
			<path class="st1" d="M172.9,178.5c-1.6,0-3.2-0.5-4.5-1.6l-23.6-19.5c-1.7-1.5-2.6-3.5-2.5-5.7c0.1-2.1,1.3-4,3.1-5.2
				c20-13,32.2-16.5,38.5-11.1c7.8,6.8,1.8,24.9-4.6,39c-0.9,1.9-2.6,3.4-4.7,3.9C174.1,178.5,173.5,178.5,172.9,178.5z
				 M176.6,138.7c-4.2,0-12.3,2.4-28.1,12.6c-0.3,0.2-0.6,0.6-0.6,0.9c0,0.4,0.1,0.7,0.5,1l23.6,19.5c0.3,0.3,0.8,0.4,1.3,0.2
				c0.3-0.1,0.7-0.2,0.9-0.7l0,0c7.5-16.4,9.9-29.1,6-32.4C179.7,139.2,178.6,138.7,176.6,138.7z"/>
		</g>
	</g>
	<path id="nose_00000029739023471683129280000003739438588076817823_" class="st1" d="M142.1,264.6c-1.3,0.8-2.9,0.8-4.2,0
		c-3.9-2.3-11.6-7.8-9.5-13.5c1.9-5.2,6.7-3.3,9.5-1.5c1.3,0.8,3,0.8,4.4,0c2.8-1.7,7.6-3.6,9.5,1.5
		C153.7,256.8,146,262.3,142.1,264.6z"/>
	<path id="tear_left_00000072984153994856370070000016499723784009181347_" class="st5" d="M123,205.8c0,0,11,27.8-9,50"/>
	<path id="tear_right_00000093884393444500721560000015181917355216170913_" class="st5" d="M157,205.8c0,0-11,27.8,9,50"/>
	<g id="eye_left_00000121239045343159107990000017014848164966126992_">
		<circle class="st6" cx="120" cy="210.8" r="10"/>
		<circle class="st7" cx="123" cy="216.8" r="3"/>
	</g>
	<g id="eye_right_00000016052634354590400930000017809539023688076418_">
		<circle class="st6" cx="160" cy="210.8" r="10"/>
		<circle class="st7" cx="157" cy="216.8" r="3"/>
	</g>
	<line id="nose_path_00000163041053852965484320000009614226639876443269_" class="st8" x1="140" y1="256.5" x2="140" y2="274"/>
</g>
<g id="mustage_right_00000125567788595508976400000005553106499927104151_">
	<line class="st5" x1="216.9" y1="213.6" x2="167.1" y2="229.4"/>
	<line class="st5" x1="206.7" y1="235.9" x2="172.4" y2="236"/>
	<line class="st5" x1="204" y1="260.4" x2="167.1" y2="244.2"/>
</g>
<g id="mustage_right_00000107585759795457702110000017382307041986881971_">
	<line class="st5" x1="63.1" y1="213.6" x2="112.9" y2="229.4"/>
	<line class="st5" x1="73.3" y1="235.9" x2="107.6" y2="236"/>
	<line class="st5" x1="76" y1="260.4" x2="112.9" y2="244.2"/>
</g>
</svg>
