<?xml version="1.0" encoding="utf-8"?>
<!-- Generator: Adobe Illustrator 27.6.1, SVG Export Plug-In . SVG Version: 6.00 Build 0)  -->
<svg version="1.1" id="Layer_1" xmlns="http://www.w3.org/2000/svg" xmlns:xlink="http://www.w3.org/1999/xlink" x="0px" y="0px"
	 viewBox="0 0 300 300" style="enable-background:new 0 0 300 300;" xml:space="preserve">
<style type="text/css">
	.st0{fill:#B57D3C;stroke:#444444;stroke-width:7;stroke-miterlimit:10;}
	.st1{fill:#D19147;stroke:#444444;stroke-width:6.9996;stroke-miterlimit:9.9995;}
	.st2{fill:#E8C8A2;}
	.st3{fill:#DDBC6D;stroke:#444444;stroke-width:7;stroke-miterlimit:10;}
	.st4{fill:#444444;}
	.st5{fill:#464646;}
	.st6{fill:#E9E5E2;}
	.st7{fill:#9D6D35;stroke:#444444;stroke-width:7;stroke-miterlimit:10;}
</style>
<ellipse id="body" class="st0" cx="150" cy="119" rx="67.5" ry="95"/>
<path class="st0" d="M197.3,239.8c-0.9,1.1-1.7,2.1-2.6,3.2c-25,32.5-44.7,33-44.7,33s-19.7-0.5-44.7-33c-0.9-1.1-1.7-2.2-2.6-3.2
	c-4.6-5.7-21.5-30.8-0.7-69.8c0,0,11.3-24.8,48-24.8s48,24.8,48,24.8C218.8,208.9,201.9,234.1,197.3,239.8z"/>
<g>
	<ellipse transform="matrix(0.7431 -0.6691 0.6691 0.7431 -68.9263 188.4394)" class="st1" cx="211" cy="184" rx="25.5" ry="13"/>
	<ellipse transform="matrix(0.7431 -0.6691 0.6691 0.7431 -68.9263 188.4394)" class="st2" cx="211" cy="184" rx="16.9" ry="3.6"/>
</g>
<g>
	<ellipse transform="matrix(0.6691 -0.7431 0.7431 0.6691 -107.2932 127.0097)" class="st1" cx="89" cy="184" rx="13" ry="25.5"/>
	<ellipse transform="matrix(0.6691 -0.7431 0.7431 0.6691 -107.2932 127.0097)" class="st2" cx="89" cy="184" rx="3.6" ry="16.9"/>
</g>
<path class="st3" d="M169.7,163.4c1.9,2,5,4,10,5.2c2.1,0.5,4.3,0.3,6.3-0.5c6.2-2.6,21.6-9.6,36.7-20.3
	c16.5-11.7,28.3-29,32.4-48.8c4.3-20.9,0.5-45.8-37.4-53.8c-2-0.4-3.3,2.1-1.7,3.4c8.3,7.3,28.5,25.5,22.7,34.4
	c0,0-4.9-13.1-17.2-14.8c-2.8-0.4-5.2,1.4-3.8,3.9c9.1,15.3,26.5,53.9-18.6,65.6c0,0,14.6-41.1-3.4-52c-2.4-1.5-5.3,0.9-4.4,3.5
	c3.5,9.8,5.7,31.6-21.8,63.9C166.9,156.1,167,160.5,169.7,163.4z"/>
<path class="st3" d="M130.3,163.4c-1.9,2-5,4-10,5.2c-2.1,0.5-4.3,0.3-6.3-0.5c-6.2-2.6-21.6-9.6-36.7-20.3
	C60.9,136,49.1,118.7,45,99c-4.3-20.9-0.5-45.8,37.4-53.8c2-0.4,3.3,2.1,1.7,3.4C75.8,55.9,55.6,74.1,61.4,83
	c0,0,4.9-13.1,17.2-14.8c2.8-0.4,5.2,1.4,3.8,3.9C73.3,87.4,55.9,126,101,137.7c0,0-14.6-41.1,3.4-52c2.4-1.5,5.3,0.9,4.4,3.5
	c-3.5,9.8-5.7,31.6,21.8,63.9C133.1,156.1,133,160.5,130.3,163.4z"/>
<path id="nose" class="st4" d="M162.7,259.6c0,9.3-12.7,8.3-12.7,8.3s-12.7,1-12.7-8.3c0,0-1.1-7.5,12.7-7.5
	S162.7,259.6,162.7,259.6z"/>
<g>
	<circle class="st5" cx="128" cy="211" r="9.3"/>
	<circle class="st6" cx="129.5" cy="215.5" r="4.7"/>
</g>
<g>
	<circle class="st5" cx="172" cy="211" r="9.3"/>
	<circle class="st6" cx="170.5" cy="215.5" r="4.7"/>
</g>
<ellipse class="st7" cx="150" cy="28.4" rx="27.5" ry="22.9"/>
</svg>
