<?xml version="1.0" encoding="utf-8"?>
<!-- Generator: Adobe Illustrator 27.6.1, SVG Export Plug-In . SVG Version: 6.00 Build 0)  -->
<svg version="1.1" id="Layer_1" xmlns="http://www.w3.org/2000/svg" xmlns:xlink="http://www.w3.org/1999/xlink" x="0px" y="0px"
	 viewBox="0 0 300 300" style="enable-background:new 0 0 300 300;" xml:space="preserve">
<style type="text/css">
	.st0{fill:#BE5555;stroke:#444444;stroke-width:6.5;stroke-miterlimit:10;}
	.st1{fill:#924141;stroke:#454545;stroke-width:6.5;stroke-miterlimit:10;}
	.st2{fill:#BB9E68;}
	.st3{fill:#BE5555;stroke:#454545;stroke-width:6.5;stroke-miterlimit:10;}
	.st4{fill:#BE5555;stroke:#454545;stroke-width:6.5;stroke-linecap:round;stroke-miterlimit:10;}
	.st5{fill:#484848;}
	.st6{fill:#DFC655;}
	.st7{fill:#D5C29F;stroke:#454545;stroke-width:2.5;stroke-miterlimit:10;}
	.st8{fill:#454545;}
	.st9{fill:#BB9E68;stroke:#454545;stroke-width:6.5;stroke-miterlimit:10;}
</style>
<g>
	<ellipse id="body" class="st0" cx="150" cy="145.9" rx="84" ry="112.1"/>
	<g>
		<path class="st1" d="M191.2,93.5V150h-82.3V93.5l18-18l2.5-10c-10-16.2-6.3-26.4-2.5-31.5c0.4-0.6,0.9-1,1.5-1.3
			c-6.2-13.1-2.8-21.5,0.5-26c1.7-2.3,5.2-2.4,7-0.2L147.2,20c0.7,0.8,1.2,1.6,1.7,2.5c0.3,0,0.7,0,1,0s0.7,0,1,0
			c0.5-0.9,1.1-1.7,1.7-2.5l11.4-13.6c1.9-2.2,5.3-2.1,7,0.2c3.3,4.5,6.6,12.9,0.5,26c0.6,0.3,1.1,0.7,1.5,1.3
			c3.8,5.1,7.5,15.3-2.5,31.5l2.5,10L191.2,93.5z"/>
		<path class="st2" d="M145.2,42.9c-1.2,0.8-3.1,0.2-4.5-0.4c-2.6-1.2-4.9-3.2-6.5-5.9c-8.9-14.3-6.4-23.1-2.8-28
			c0.3-0.4,0.7-0.5,0.9-0.5h0c0.2,0,0.6,0.1,1,0.5l11.4,13.6c2,2.3,3.1,5.3,3.2,8.4C148.1,39.9,146.1,42.3,145.2,42.9z"/>
		<path class="st2" d="M165.8,36.6c-1.7,2.7-3.9,4.7-6.5,5.9c-1.4,0.6-3.3,1.2-4.5,0.4c-0.9-0.6-3-3-2.7-12.4c0.1-3,1.2-6,3.2-8.4
			l11.4-13.6c0.3-0.4,0.8-0.5,1-0.5c0.2,0,0.6,0.1,0.9,0.5C172.3,13.5,174.7,22.3,165.8,36.6z"/>
		<path class="st2" d="M143.2,70.2c-1.2,0.8-3.1,0.2-4.5-0.4c-2.6-1.2-4.9-3.2-6.5-5.9c-8.9-14.3-6.4-23.1-2.8-28
			c0.3-0.4,0.7-0.5,0.9-0.5h0c0.2,0,0.6,0.1,1,0.4l11.4,13.6c2,2.3,3.1,5.3,3.2,8.4C146.1,67.2,144.1,69.6,143.2,70.2z"/>
		<path class="st2" d="M167.8,63.9c-1.7,2.7-3.9,4.7-6.5,5.9c-1.4,0.6-3.3,1.2-4.5,0.4c-0.9-0.6-3-3-2.7-12.4c0.1-3.1,1.2-6,3.2-8.4
			l11.4-13.6c0.3-0.4,0.7-0.4,1-0.4h0c0.2,0,0.6,0.1,0.9,0.5C174.3,40.8,176.7,49.7,167.8,63.9z"/>
	</g>
</g>
<g>
	<circle class="st3" cx="150" cy="204" r="74.8"/>
	<path class="st4" d="M186,245v36.9c0,7.8-6.4,14.1-14.1,14.1h-43.8c-7.8,0-14.1-6.4-14.1-14.1V245"/>
</g>
<g>
	<circle class="st5" cx="184" cy="219" r="12"/>
	<circle class="st6" cx="184" cy="225" r="6.5"/>
</g>
<g>
	<circle class="st5" cx="116" cy="219" r="12"/>
	<circle class="st6" cx="116" cy="225" r="6.5"/>
</g>
<circle class="st5" cx="167" cy="278" r="6"/>
<circle class="st5" cx="133" cy="278" r="6"/>
<g id="wing_left">
	<path class="st3" d="M202.5,168c0,0,37.8-34.8,61.1-43.6c5.4-2,9.5-6.7,10.7-12.3c5-23.3,17-79.5,21.1-102.1
		c0.6-3.2-2.7-5.8-5.7-4.5l-54.6,23.3c-1.8,0.8-3.1,2.5-3.4,4.4l-2,13.5c0,0,0.5,11.2-30.1,32.5c-2.3,1.6-3.7,4.3-3.7,7.1
		c-0.1,7.9-2.1,26.2-17.1,51.8L202.5,168z"/>
	<path class="st7" d="M256.9,99.8l32.7-94.4l-54.6,23.3c-1.8,0.8-3.1,2.5-3.4,4.4l-2,13.5c0,0,0.5,11.2-30.1,32.5
		c-2.3,1.6-3.7,4.2-3.7,7.1c-0.1,7.9-2.1,26.2-17.1,51.8l7.1,8.9l66-40.6C254.1,104.8,256,102.5,256.9,99.8z"/>
	<polygon class="st8" points="239.9,38 258,96.8 261.1,87.6 	"/>
	<polygon class="st8" points="203.9,87.9 256.9,99.3 253.7,104.7 	"/>
</g>
<path id="horn_left" class="st9" d="M204,91.1c4.4,18.3,7.1,54-17.2,58.4c-4.5,0.8-7.6,5-6.9,9.5c1.2,7.1,6.2,16.4,22.7,20.3
	c3.5,0.8,7.1-0.4,9.5-3.1c10.9-12.4,38.7-51,1.1-90.1C209.3,82.2,202.7,85.7,204,91.1z"/>
<g id="wing_left_00000090274655979736617010000008197982739274493076_">
	<path class="st3" d="M97.5,168c0,0-37.8-34.8-61.1-43.6c-5.4-2-9.5-6.7-10.7-12.3C20.7,88.8,8.7,32.6,4.7,10
		c-0.6-3.2,2.7-5.8,5.7-4.5l54.6,23.3c1.8,0.8,3.1,2.5,3.4,4.4l2,13.5c0,0-0.5,11.2,30.1,32.5c2.3,1.6,3.7,4.3,3.7,7.1
		c0.1,7.9,2.1,26.2,17.1,51.8L97.5,168z"/>
	<path class="st7" d="M43.1,99.8L10.4,5.4l54.6,23.3c1.8,0.8,3.1,2.5,3.4,4.4l2,13.5c0,0-0.5,11.2,30.1,32.5
		c2.3,1.6,3.7,4.2,3.7,7.1c0.1,7.9,2.1,26.2,17.1,51.8l-7.1,8.9l-66-40.6C45.9,104.8,44,102.5,43.1,99.8z"/>
	<polygon class="st8" points="60.1,38 42,96.8 38.9,87.6 	"/>
	<polygon class="st8" points="96.1,87.9 43.1,99.3 46.3,104.7 	"/>
</g>
<path id="horn_left_00000103229611075504857290000007645822790967027117_" class="st9" d="M96,91.1c-4.4,18.3-7.1,54,17.2,58.4
	c4.5,0.8,7.6,5,6.9,9.5c-1.2,7.1-6.2,16.4-22.7,20.3c-3.5,0.8-7.1-0.4-9.5-3.1c-10.9-12.4-38.7-51-1.1-90.1
	C90.7,82.2,97.3,85.7,96,91.1z"/>
</svg>
