<?xml version="1.0" encoding="utf-8"?>
<!-- Generator: Adobe Illustrator 22.0.0, SVG Export Plug-In . SVG Version: 6.00 Build 0)  -->
<svg version="1.1" id="Layer_1" xmlns="http://www.w3.org/2000/svg" xmlns:xlink="http://www.w3.org/1999/xlink" x="0px" y="0px"
	 viewBox="0 0 300 300" style="enable-background:new 0 0 300 300;" xml:space="preserve">
<style type="text/css">
	.st0{fill:#A7A5A6;stroke:#444444;stroke-width:6.5;stroke-miterlimit:10;}
	.st1{fill:#A7A5A6;stroke:#444444;stroke-width:6.5;stroke-linecap:round;stroke-miterlimit:10;}
	.st2{fill:#FFFFFF;stroke:#444444;stroke-width:6.5;stroke-miterlimit:10;}
	.st3{fill:#444444;}
	.st4{fill:#FFFFFF;}
	.st5{fill:none;stroke:#848383;stroke-width:5;stroke-linecap:round;stroke-miterlimit:10;}
</style>
<ellipse id="body" class="st0" cx="150" cy="123.5" rx="81.8" ry="109.8"/>
<circle class="st0" cx="150" cy="178" r="70"/>
<path class="st1" d="M194,149.8l37.8-27.5c2.7-2,6.6-1,8,2c7.7,15.8,25.1,60.7-13.8,81.3c0,0-7.8,8-36.3-20.2"/>
<path class="st2" d="M183.7,223.3l10.6-11.8c1.7-1.9,4.7-2,6.6-0.2c8.3,8.1,25.8,31.8-4.3,68.6c-0.2,0.2-0.5,0.1-0.5-0.2
	c0.4-4.6,1.3-25.7-13-51.1C182.1,226.9,182.4,224.8,183.7,223.3z"/>
<path class="st1" d="M132.3,226.5c0,0,5.2,34.7-1.4,51.7c-1.2,3.2,1.1,6.6,4.5,6.6h19.1c5.2,0,9.8-3.5,11.3-8.5
	c2.7-9.1,5.5-25.6,2.2-49.9"/>
<g>
	<circle class="st3" cx="125" cy="202" r="9.5"/>
	<circle class="st4" cx="128" cy="206" r="4.6"/>
</g>
<g>
	<circle class="st3" cx="175" cy="202" r="9.5"/>
	<circle class="st4" cx="172" cy="206" r="4.6"/>
</g>
<path class="st2" d="M116.3,223.3l-10.6-11.8c-1.7-1.9-4.7-2-6.6-0.2c-8.3,8.1-25.8,31.8,4.3,68.6c0.2,0.2,0.5,0.1,0.5-0.2
	c-0.4-4.6-1.3-25.7,13-51.1C117.9,226.9,117.6,224.8,116.3,223.3z"/>
<path class="st1" d="M106,149.8l-37.8-27.5c-2.7-2-6.6-1-8,2C52.5,140.1,35.1,185,74,205.7c0,0,7.8,8,36.3-20.2"/>
<path class="st5" d="M141.4,235.7c5.6,4.9,14.2,4.4,19.1-1.3"/>
<path class="st5" d="M142.4,254.2c5.7,4.9,14.2,4.2,19.1-1.5"/>
</svg>
