<?xml version="1.0" encoding="utf-8"?>
<!-- Generator: Adobe Illustrator 27.6.1, SVG Export Plug-In . SVG Version: 6.00 Build 0)  -->
<svg version="1.1" id="Layer_1" xmlns="http://www.w3.org/2000/svg" xmlns:xlink="http://www.w3.org/1999/xlink" x="0px" y="0px"
	 viewBox="0 0 263 300" style="enable-background:new 0 0 263 300;" xml:space="preserve">
<style type="text/css">
	.st0{fill:#FFA954;}
	.st1{fill:#464646;}
	.st2{fill:#E9E5E2;}
	.st3{fill:#FFFFFF;}
</style>
<path class="st0" d="M154.1,181.1c-1,0.6-1.7,1.4-2.3,2.4c-8.4,16-17.4,18.9-19.8,19.5c-0.4,0.1-0.8,0.1-1.2,0
	c-2.4-0.5-11.3-3.5-19.8-19.5c-0.5-1-1.3-1.8-2.3-2.4c-4.7-2.8-18.8-13.4-11.6-37c0.8-2.8,2.8-1,8.7,0.4c0.3,0.1,0.6-0.2,0.6-0.5
	c-0.1-2.4-0.1-11.3,5.4-16.5c0.8-0.7,1-1.8,0.6-2.8c-3.7-8-18-41.5,17.6-21.9c0.9,0.5,1.9,0.5,2.8,0c35.6-19.6,21.3,13.9,17.6,21.9
	c-0.4,0.9-0.2,2,0.6,2.8c5.5,5.1,5.5,14,5.4,16.5c0,0.3,0.3,0.6,0.6,0.5c5.8-1.4,7.8-3.2,8.7-0.4C173,167.7,158.8,178.3,154.1,181.1
	z"/>
<g>
	<circle class="st1" cx="121.5" cy="180" r="5"/>
	<circle class="st2" cx="122.3" cy="182.4" r="2.5"/>
</g>
<path class="st3" d="M160.5,180.3l-0.3-0.2c-18.7-11.6-38.8-11.6-57.5,0l-0.2,0.1v-8.9l0.2-0.1c18.7-11.6,38.8-11.6,57.5,0l0.3,0.2"
	/>
<path class="st3" d="M166,154.4l-0.3-0.2c-22.3-11.6-46.2-11.6-68.4,0l-0.3,0.1v-8.9l0.3-0.1c22.2-11.6,46.2-11.6,68.4,0l0.3,0.2"/>
<path class="st3" d="M152.5,127.6l-0.2-0.2c-13.6-11.6-28.2-11.6-41.7,0l-0.2,0.1v-8.9l0.2-0.1c13.6-11.6,28.2-11.6,41.7,0l0.2,0.2"
	/>
<path class="st1" d="M131.5,206.5c-0.5,0-0.9,0-1.4-0.2c-2.9-0.6-13-4-22.1-21.3c-0.2-0.4-0.5-0.7-1-1c-5.1-3-21.2-14.9-13.2-41
	c0.5-1.6,1.4-2.7,2.6-3.4c2-1.1,4.1-0.4,6.4,0.3c0.1,0,0.1,0,0.2,0.1c0.3-3.1,1.1-7.3,3.2-11c1.4-2.5,1.7-5.4,0.7-8.1
	c-3.8-9.5-6.2-20.1-0.8-25.1c4.1-3.8,10.9-3.3,21.3,1.7c2.6,1.2,5.6,1.2,8.1,0c10.4-5,17.2-5.6,21.3-1.7c5.4,5,3,15.6-0.8,25.1
	c-1.1,2.6-0.8,5.6,0.7,8.1c2.2,3.7,2.9,7.9,3.2,11c0.1,0,0.1,0,0.2-0.1c2.3-0.8,4.4-1.4,6.4-0.3c1.2,0.6,2.1,1.8,2.6,3.4
	c8,26.1-8,38-13.2,41c-0.4,0.3-0.8,0.6-1,1c-9.1,17.2-19.2,20.6-22.1,21.3C132.4,206.5,132,206.5,131.5,206.5z M100.2,146.6
	c-5.4,19.7,5.4,28.6,10.4,31.6c1.5,0.9,2.8,2.2,3.6,3.7c4.2,8,8.5,12.5,11.8,14.9s7.7,2.4,10.9,0c3.3-2.4,7.6-6.8,11.8-14.9
	c0.8-1.5,2-2.8,3.6-3.7l0,0c5-3,15.9-11.9,10.5-31.6c-0.2,0.1-0.4,0.1-0.6,0.2c-1.1,0.4-2.5,0.8-4.3,1.2c-1.1,0.3-2.5,0-3.4-0.8
	c-1-0.8-1.5-2-1.5-3.2c0.1-1.6,0.2-9.6-4.3-13.8c-1.9-1.8-2.5-4.5-1.4-6.8c5.7-12.1,6.7-20.5,4.7-22.4c-0.3-0.3-3.5-2.7-17.5,5
	c-1.9,1.1-4.2,1.1-6.2,0c-14-7.7-17.1-5.3-17.5-5c-1.9,1.8-1,10.3,4.7,22.3c1.1,2.3,0.5,5-1.4,6.8c-4.5,4.2-4.3,12.2-4.3,13.7
	c0,1.3-0.5,2.5-1.5,3.3s-2.3,1.1-3.5,0.7c-1.7-0.4-3.1-0.9-4.3-1.2C100.6,146.7,100.4,146.6,100.2,146.6z M156.3,141.2
	C156.3,141.2,156.2,141.2,156.3,141.2C156.2,141.2,156.3,141.2,156.3,141.2z M106.6,141.2C106.7,141.2,106.7,141.2,106.6,141.2
	C106.7,141.2,106.7,141.2,106.6,141.2z M109.5,125.1L109.5,125.1L109.5,125.1z M153.5,125.1L153.5,125.1L153.5,125.1z"/>
<g>
	<circle class="st1" cx="141.5" cy="180" r="5"/>
	<circle class="st2" cx="140.7" cy="182.4" r="2.5"/>
</g>
</svg>
