<?xml version="1.0" encoding="utf-8"?>
<!-- Generator: Adobe Illustrator 27.6.1, SVG Export Plug-In . SVG Version: 6.00 Build 0)  -->
<svg version="1.1" id="fox" xmlns="http://www.w3.org/2000/svg" xmlns:xlink="http://www.w3.org/1999/xlink" x="0px" y="0px"
	 viewBox="0 0 263 300" style="enable-background:new 0 0 263 300;" xml:space="preserve">
<style type="text/css">
	.st0{fill:#BE5555;stroke:#464646;stroke-width:6.83;stroke-miterlimit:10;}
	.st1{fill:#BE5555;}
	.st2{fill:#E7E7E7;}
	.st3{fill:#464646;}
	.st4{fill:#484848;}
	.st5{fill:#E2BF45;}
	.st6{fill:#EAE6E6;}
	.st7{fill:none;stroke:#464646;stroke-width:5;stroke-linecap:round;stroke-miterlimit:10;}
</style>
<ellipse id="body" class="st0" cx="131.5" cy="119" rx="67.5" ry="95"/>
<g id="head">
	<path class="st1" d="M131.5,275c22.1,0,21.1-13.2,30-18.3c17.9-10.4,30-29.7,30-51.9c0-33.1-26.9-59.9-60-59.9s-60,26.8-60,59.9
		c0,22.2,12.1,41.5,30,51.9C110.3,261.8,109.3,275,131.5,275"/>
	<path id="mouth" class="st2" d="M131.5,275.1c22.1,0,21.1-13.2,30-18.3c17.9-10.4,20-21.9,20-21.9s-16.9-10-50-10s-50,10-50,10
		s2.1,11.5,20,21.9C110.3,261.9,109.3,275.1,131.5,275.1L131.5,275.1z"/>
	<path class="st3" d="M131.5,278.4c-16.8,0-22-7.2-26.2-12.9c-1.8-2.4-3.3-4.5-5.5-5.8c-19.6-11.4-31.7-32.4-31.7-54.9
		c0-34.9,28.4-63.3,63.4-63.3s63.4,28.4,63.4,63.3c0,22.5-12.1,43.5-31.7,54.9c-2.3,1.3-3.8,3.4-5.6,5.9
		C153.4,271.3,148.1,278.4,131.5,278.4z M131.5,148.3c-31.2,0-56.6,25.3-56.6,56.5c0,20,10.8,38.8,28.3,48.9c3.5,2,5.6,4.9,7.6,7.7
		c3.8,5.2,7.4,10.1,20.7,10.1c13.2,0,16.8-4.9,20.6-10.1c2.1-2.8,4.2-5.7,7.7-7.8c17.4-10.1,28.3-28.9,28.3-48.9
		C188.1,173.7,162.7,148.3,131.5,148.3z"/>
</g>
<ellipse id="nose" class="st4" cx="131.5" cy="260" rx="12.5" ry="10"/>
<g id="eye_left">
	<circle class="st4" cx="111.5" cy="210" r="10"/>
	<circle class="st5" cx="114.5" cy="216" r="3"/>
</g>
<g id="eye_right">
	<circle class="st4" cx="151.5" cy="210" r="10"/>
	<circle class="st5" cx="148.5" cy="216" r="3"/>
</g>
<g id="ear_left">
	<path class="st0" d="M118.5,158.8l-23.2,17.7c-1.2,0.9-2.8,0.8-3.8-0.3c-5-5.3-17-22.3-2.2-51.6c1-1.9,3.5-2.2,4.8-0.5
		c4.7,5.9,14.7,18,24.3,25C121.7,151.4,121.7,156.3,118.5,158.8z"/>
	<path class="st6" d="M109.5,156.1l-11,8.4c-0.6,0.4-1.3,0.4-1.8-0.1c-2.3-2.5-8.1-10.5-1-24.4c0.5-0.9,1.7-1,2.3-0.2
		c2.2,2.8,7,8.5,11.5,11.8C111,152.7,111.1,155,109.5,156.1z"/>
</g>
<g id="ear_right">
	<path class="st0" d="M144.5,158.8l23.2,17.7c1.2,0.9,2.8,0.8,3.8-0.3c5-5.3,17-22.3,2.2-51.6c-1-1.9-3.5-2.2-4.8-0.5
		c-4.7,5.9-14.7,18-24.3,25C141.3,151.4,141.3,156.3,144.5,158.8z"/>
	<path class="st6" d="M153.5,156.1l11,8.4c0.6,0.4,1.3,0.4,1.8-0.1c2.3-2.5,8.1-10.5,1-24.4c-0.5-0.9-1.7-1-2.3-0.2
		c-2.2,2.8-7,8.5-11.5,11.8C152,152.7,151.9,155,153.5,156.1z"/>
</g>
<g id="mustage_left">
	<line class="st7" x1="64.6" y1="219.6" x2="114.4" y2="235.4"/>
	<line class="st7" x1="74.8" y1="241.9" x2="109.1" y2="242"/>
	<line class="st7" x1="77.5" y1="266.4" x2="114.4" y2="250.2"/>
</g>
<g id="mustage_right">
	<line class="st7" x1="198.4" y1="219.6" x2="148.6" y2="235.4"/>
	<line class="st7" x1="188.2" y1="241.9" x2="153.9" y2="242"/>
	<line class="st7" x1="185.5" y1="266.4" x2="148.6" y2="250.2"/>
</g>
</svg>
