<?xml version="1.0" encoding="utf-8"?>
<!-- Generator: Adobe Illustrator 27.6.1, SVG Export Plug-In . SVG Version: 6.00 Build 0)  -->
<svg version="1.1" id="Layer_1" xmlns="http://www.w3.org/2000/svg" xmlns:xlink="http://www.w3.org/1999/xlink" x="0px" y="0px"
	 viewBox="0 0 256 256" style="enable-background:new 0 0 256 256;" xml:space="preserve">
<style type="text/css">
	.st0{fill:#939393;stroke:#4A4A4A;stroke-width:5;stroke-miterlimit:10;}
	.st1{fill:#4A4A4A;stroke:#4A4A4A;stroke-width:2;stroke-miterlimit:10;}
	.st2{fill:#939393;stroke:#4A4A4A;stroke-width:4;stroke-miterlimit:10;}
	.st3{fill:#4A4A4A;stroke:#4A4A4A;stroke-miterlimit:10;}
	.st4{fill:#DA5A5A;}
	.st5{fill:#4A4A4A;}
</style>
<g id="hand_00000043452157797050823340000011283315133432387219_">
	<path class="st0" d="M145.2,114.7l7.2-7.7c0,0,12.9-3.9,13.4-2.2c0,0,18,1.8,17.3,13c0,0,10.8-0.3,11.9,10.1c0,0,8.5-0.4,12.3,3.4
		c0,0,12.6,6.6,15.5,10.8c0,0,5.2,9.7,2.1,10c0,0,1.2-3.5,7.8,13.7c0,0,6.3,6.4,6.5,9.5c0,0,10.7,23.9,6.6,21.2l-1.8,2.8
		c0,0,3.4,4.4,2.4,8.9l-1.9,5c0,0,3.1,7.4-3.4,12.3c0,0-0.4,14.3-15.5,19.7c0,0-6.2,1.9-10.1-2.6c0,0-9.2,3.3-12.5-1.9
		c0,0-8.3,3.5-14.4-5.8l-0.8-9.5c0,0-2.3-0.3-4.6-3c0,0-1.1-4.2-0.4-5.6c0,0,4.9-19.1,12.7-18.9c0,0-4.4-5.4-4.5-18.4
		c0,0-6.6-2.6-7.5-9.9c0,0-5,0.8-7.7-5.5c0,0-2.2,0-3.4-2.8S145.2,114.7,145.2,114.7z"/>
	<g>
		<path class="st1" d="M237.3,233.4c0,0-3-5.5-6.4-4.8c0,0-6.2-5.3-6.9-4.7c0,0-1.6-4.2-2.3-12.1c0,0-1.8-5.6-4.3-8.8
			c0,0-5.5-10.7,6.1-10.2c0,0,2.4-2.8,19.4,7.7l2.7-6.1c0,0-3.4,0.2-4-1.2c-0.7-1.3-3.7-10.9-5.7-11.7c0,0,6.4,16.3,4.3,13.9
			c0,0-4.9-1.1-12.8-7c0,0-2.9-19.2-8.6-22.6c0,0-4.6-11.4-3.6-11.4c0,0,0.1-1.5-0.8-1.2c0,0,1.5,13.4,3.8,13.5
			c0,0,6.6,10.2,6.3,14.7c0,0,1.7,2.8-0.5,4.7c0,0,1.5,4.7-4.4,3.9c0,0-13.9,2.4-15,0.3c0,0-5-10.4-9.1-9.1c0,0,8.9,6.1,5.5,11.1
			c0,0-3.4,5.4-5.4,6c-0.3,0.1-0.5,0.1-0.7-0.1c0,0,16.5-4.9,2.8,6.6c0,0-1.7,0.3-2.8-1.7c0,0-2.3-2.2-3.3-0.9l-2.1,0.7
			c0,0,6.1,3.8,5.6,3c0,0,3.9,14.7-2.7,12.1c0,0-6.2,5.9-5.8,6.8l2.1,2.4c0,0,4.2-10.5,7.1-6.3c0,0-0.4,2.9-2.5,2.4
			c0,0-0.7,2.8,1.7,2c0,0,4.8-5.3,3-8.2c0,0,1-11.7,2.8-12.5c0,0,4.7-11.8,12.2-9.6c0,0,2.8,3.1,2.5,5.4c0,0,5,7.9,4.6,12.9
			c0,0,5.9,8.2-5.4,7.9c0,0-8.7,2.2-8.2,4c0,0,7.6-4.5,11.5-2.9c0,0,5.4-0.1,8.7,5c0,0,8.6,4.2,9.1,7.1l2,1.2l1.4-1.7
			C239.4,234,238.4,232.6,237.3,233.4z"/>
		<path class="st1" d="M223.9,149.5c0,0-14.8-7-19.8-0.5c0,0-2.3-2-15.1-11.9c0,0,1.7-4.1-1.6-9.2c0,0-4-8.2-6.2-7.7
			c0,0-6.5-3.5-6.6-1.6c0,0-1.1-2.2-0.2-4.1c0,0,5.1-4.9,5.5-4l-1.7-1.4c0,0-5.4,3.7-4.7,4.9c0,0-4.4-2.3-5.8-1c0,0,6.1,1.1,6.1,6.1
			c0,0,4.6,3.1,6.4,2.3c0,0,7.7,6.8,6.8,7.6c0,0,1.4,5.8-0.6,6.4c0,0-11.9,4.8-14,1.4l1.4,3.4c0,0,13-0.9,13.6-2.2
			c0,0,6.8,3.2,6.3,5.8c0,0,2.1,5.4,4.4,3.5c0,0,2.9,5.6,1.3,5.2c0,0-8.9,4.6-8.2,5.5c0,0-6,6.6-3.8,12.4l-1.2,2.9l1.1,2.4
			c0,0,0.8-5.2,2.4-5.4c0,0-2.7-2.7-0.2-7.1c0,0,15.1-13,19.4-10.5c0,0,16.8-3.2,17.2,0L223.9,149.5z"/>
		<path class="st1" d="M229.4,236.1c0,0-14.6-3.6-15.1-2.2c0,0,5.6,3.7,3.3,4.3l-3.5,5.5l3.7,0.6c0,0-2.2-2.3-0.4-3.1
			c0,0,3.3-2.5,3.8-3.8C221.3,237.4,228.9,237.4,229.4,236.1z"/>
		<path class="st1" d="M211,233.3c0,0-6.4-0.1-7.7-2.6c0,0-2.6-2.9-2.9-1.2c0,0,7,3.8,2.3,9.2c0,0-1.6,3.4-3.3,2.8l8.9,1.5
			C208.3,243.1,199.1,240.8,211,233.3z"/>
	</g>
</g>
<g id="hand">
	<path class="st0" d="M110.8,114.7l-7.2-7.7c0,0-12.9-3.9-13.4-2.2c0,0-18,1.8-17.3,13c0,0-10.8-0.3-11.9,10.1c0,0-8.5-0.4-12.3,3.4
		c0,0-12.6,6.6-15.5,10.8c0,0-5.2,9.7-2.1,10c0,0-1.2-3.5-7.8,13.7c0,0-6.3,6.4-6.5,9.5c0,0-10.7,23.9-6.6,21.2l1.8,2.8
		c0,0-3.4,4.4-2.4,8.9l1.9,5c0,0-3.1,7.4,3.4,12.3c0,0,0.4,14.3,15.5,19.7c0,0,6.2,1.9,10.1-2.6c0,0,9.2,3.3,12.5-1.9
		c0,0,8.3,3.5,14.4-5.8l0.8-9.5c0,0,2.3-0.3,4.6-3c0,0,1.1-4.2,0.4-5.6c0,0-4.9-19.1-12.7-18.9c0,0,4.4-5.4,4.5-18.4
		c0,0,6.6-2.6,7.5-9.9c0,0,5,0.8,7.7-5.5c0,0,2.2,0,3.4-2.8C84.7,158.7,110.8,114.7,110.8,114.7z"/>
	<g>
		<path class="st1" d="M18.7,233.4c0,0,3-5.5,6.4-4.8c0,0,6.2-5.3,6.9-4.7c0,0,1.6-4.2,2.3-12.1c0,0,1.8-5.6,4.3-8.8
			c0,0,5.5-10.7-6.1-10.2c0,0-2.4-2.8-19.4,7.7l-2.7-6.1c0,0,3.4,0.2,4-1.2s3.7-10.9,5.7-11.7c0,0-6.4,16.3-4.3,13.9
			c0,0,4.9-1.1,12.8-7c0,0,2.9-19.2,8.6-22.6c0,0,4.6-11.4,3.6-11.4c0,0-0.1-1.5,0.8-1.2c0,0-1.5,13.4-3.8,13.5
			c0,0-6.6,10.2-6.3,14.7c0,0-1.7,2.8,0.5,4.7c0,0-1.5,4.7,4.4,3.9c0,0,13.9,2.4,15,0.3c0,0,5-10.4,9.1-9.1c0,0-8.9,6.1-5.5,11.1
			c0,0,3.4,5.4,5.4,6c0.3,0.1,0.5,0.1,0.7-0.1c0,0-16.5-4.9-2.8,6.6c0,0,1.7,0.3,2.8-1.7c0,0,2.3-2.2,3.3-0.9l2.1,0.7
			c0,0-6.1,3.8-5.6,3c0,0-3.9,14.7,2.7,12.1c0,0,6.2,5.9,5.8,6.8l-2.1,2.4c0,0-4.2-10.5-7.1-6.3c0,0,0.4,2.9,2.5,2.4
			c0,0,0.7,2.8-1.7,2c0,0-4.8-5.3-3-8.2c0,0-1-11.7-2.8-12.5c0,0-4.7-11.8-12.2-9.6c0,0-2.8,3.1-2.5,5.4c0,0-5,7.9-4.6,12.9
			c0,0-5.9,8.2,5.4,7.9c0,0,8.7,2.2,8.2,4c0,0-7.6-4.5-11.5-2.9c0,0-5.4-0.1-8.7,5c0,0-8.6,4.2-9.1,7.1l-2,1.2l-1.4-1.7
			C16.6,234,17.6,232.6,18.7,233.4z"/>
		<path class="st1" d="M32.1,149.5c0,0,14.8-7,19.8-0.5c0,0,2.3-2,15.1-11.9c0,0-1.7-4.1,1.6-9.2c0,0,4-8.2,6.2-7.7
			c0,0,6.5-3.5,6.6-1.6c0,0,1.1-2.2,0.2-4.1c0,0-5.1-4.9-5.5-4l1.7-1.4c0,0,5.4,3.7,4.7,4.9c0,0,4.4-2.3,5.8-1c0,0-6.1,1.1-6.1,6.1
			c0,0-4.6,3.1-6.4,2.3c0,0-7.7,6.8-6.8,7.6c0,0-1.4,5.8,0.6,6.4c0,0,11.9,4.8,14,1.4l-1.4,3.4c0,0-13-0.9-13.6-2.2
			c0,0-6.8,3.2-6.3,5.8c0,0-2.1,5.4-4.4,3.5c0,0-2.9,5.6-1.3,5.2c0,0,8.9,4.6,8.2,5.5c0,0,6,6.6,3.8,12.4l1.2,2.9l-1.1,2.4
			c0,0-0.8-5.2-2.4-5.4c0,0,2.7-2.7,0.2-7.1c0,0-15.1-13-19.4-10.5c0,0-16.8-3.2-17.2,0L32.1,149.5z"/>
		<path class="st1" d="M26.6,236.1c0,0,14.6-3.6,15.1-2.2c0,0-5.6,3.7-3.3,4.3l3.5,5.5l-3.7,0.6c0,0,2.2-2.3,0.4-3.1
			c0,0-3.3-2.5-3.8-3.8C34.7,237.4,27.1,237.4,26.6,236.1z"/>
		<path class="st1" d="M45,233.3c0,0,6.4-0.1,7.7-2.6c0,0,2.6-2.9,2.9-1.2c0,0-7,3.8-2.3,9.2c0,0,1.6,3.4,3.3,2.8l-8.9,1.5
			C47.7,243.1,56.9,240.8,45,233.3z"/>
	</g>
</g>
<g id="head">
	<path id="face" class="st2" d="M171.7,159.3c-6.7,14.8-16.8,16.5-19.1,18c-2.4,1.5-24.6,1-24.6,1s-22.2,0.5-24.6-1
		c-2.3-1.5-12.4-3.1-19.1-18c-6.7-14.8-5-13.1-1.5-24.4c0,0-2.3-6.1,0.6-7.8c2.9-1.7,5.4-10.4,5.9-12.1c0.5-1.7,0.5-7,0.5-7
		s-3.5-2.6-3.5-7c0,0-0.9,0-1.7-6.1c0,0,1.7-2.6,7-5.2c0,0,2.2-1.2,6.3-0.2c0,0,5-1.6,8.5-7.6s21.7-0.8,21.7-0.8s18.2-5.3,21.7,0.8
		c3.5,6.1,8.5,7.6,8.5,7.6c4.1-1.1,6.3,0.2,6.3,0.2c5.2,2.6,7,5.2,7,5.2c-0.9,6.1-1.7,6.1-1.7,6.1c0,4.3-3.5,7-3.5,7s0,5.2,0.5,7
		c0.5,1.7,3,10.4,5.9,12.1c2.9,1.7,0.6,7.8,0.6,7.8C176.7,146.2,178.4,144.5,171.7,159.3z"/>
	<path id="around_eye" class="st3" d="M155.6,128.2c-1,2-9.2,4.1-9.2,4.1c-5-3.4-18.5-5.9-18.5-5.9s-13.5,2.4-18.5,5.9
		c0,0-8.2-2.1-9.2-4.1c0,0-0.6-0.8,0.5-1.4c0,0-9.8-11.2-6.5-14.6c0,0,0.5-2.5-0.5-3.1c1.3,0.4,7.5,2.7,9.8,6.6l15.6,6.3
		c0,0,8.8,1.5,7.9-8c-0.8-8.5-0.4-11.3-19.1-18.3c-2.3-0.9-5-1.8-8-2.9c0,0,8.5,0.7,16,4c7.5,3.3,11.9,6.3,11.9,6.3
		s4.3-3.1,11.9-6.3c7.5-3.3,16-4,16-4c-26.8,9.3-26.2,11.6-27.1,21.1s7.9,8,7.9,8l15.6-6.3c2.3-3.9,8.6-6.2,9.8-6.6
		c-1,0.5-0.5,3.1-0.5,3.1c3.3,3.4-6.5,14.6-6.5,14.6C156.3,127.4,155.6,128.2,155.6,128.2z"/>
	<path id="eye" class="st4" d="M104.6,119l10.8,3.9C115.4,123,107.5,129.4,104.6,119z"/>
	<path id="mouth" class="st2" d="M174.6,151.2c0.6,11-16.4,23.5-16.4,23.5c-5.4,4.1-30.2,3.4-30.2,3.4s-24.8,0.7-30.2-3.4
		c0,0-17-12.4-16.4-23.5c0,0-3.8-4.1,1.5-17.1c0,0-2-5.3,0.7-7c0,0,0.6-1.1,1.8-2.4c0.6-0.7,1.5-0.8,2.3-0.4
		c0.7,0.4,3.8,1.2,4.8,4.6c1.2,4.3,1.3,10.6,1.3,13.9c0,1.8,1,3.4,2.7,4c0.7,0.2,1.3,0.2,1.5-0.4c0-1,0.3-1.9,0.8-2.7
		c0.5-0.8,1.2-1.5,2.1-1.9l5-2.5c1.7-0.9,3.7-0.9,5.4-0.1c0.1,0,0.2,0,0.3,0c0.6,0,1.2-0.4,1.4-1.1l0.2-0.6c0,0,9.9-4.1,13.4,1.1
		l1.8,4.2l1.8-4.2c3.5-5.1,13.4-1.1,13.4-1.1l0.2,0.6c0.2,0.6,0.8,1.1,1.4,1.1c0.1,0,0.2,0,0.3,0c1.7-0.8,3.7-0.8,5.4,0.1l5,2.5
		c0.9,0.4,1.6,1.1,2.1,1.9c0.5,0.8,0.8,1.7,0.8,2.7c0.2,0.7,0.8,0.7,1.5,0.4c1.7-0.6,2.7-2.3,2.7-4c0-3.3,0.1-9.6,1.3-13.9
		c1-3.4,4.1-4.2,4.8-4.6c0.8-0.4,1.7-0.2,2.3,0.4c1.1,1.3,1.8,2.4,1.8,2.4c2.8,1.7,0.7,7,0.7,7C178.4,147.1,174.6,151.2,174.6,151.2
		z"/>
	<path id="eye_00000099633820064872892320000018041595615835613078_" class="st4" d="M151.4,119l-10.8,3.9
		C140.6,123,148.5,129.4,151.4,119z"/>
	<path class="st3" d="M98,172c0,0-2.8-2.8-3.7-10.2s0.9-9.2,2.8-8.3c1.8,0.9,0,10.2,0,10.2s-1.8,5.5,5.5,6.5l7.4,6.5L98,172z"/>
	<path class="st3" d="M158,172c0,0,2.8-2.8,3.7-10.2c0.9-7.4-0.9-9.2-2.8-8.3s0,10.2,0,10.2s1.8,5.5-5.5,6.5l-7.4,6.5L158,172z"/>
	<path class="st5" d="M91,143.5c0,0-2.8-12.9-4.6-11.5s-0.9,12,2.3,13.6c3.2,1.6,6.9,2.5,6.9,2.5L91,143.5z"/>
	<path class="st5" d="M165,143.5c0,0,2.8-12.9,4.6-11.5c1.8,1.4,0.9,12-2.3,13.6c-3.2,1.6-6.9,2.5-6.9,2.5L165,143.5z"/>
</g>
</svg>
