<?xml version="1.0" encoding="utf-8"?>
<!-- Generator: Adobe Illustrator 22.0.0, SVG Export Plug-In . SVG Version: 6.00 Build 0)  -->
<svg version="1.1" id="Layer_1" xmlns="http://www.w3.org/2000/svg" xmlns:xlink="http://www.w3.org/1999/xlink" x="0px" y="0px"
	 viewBox="0 0 300 300" style="enable-background:new 0 0 300 300;" xml:space="preserve">
<style type="text/css">
	.st0{fill:#E6E4E2;stroke:#454545;stroke-width:8;stroke-miterlimit:10;}
	.st1{fill:#E7C7CE;stroke:#454545;stroke-width:8;stroke-miterlimit:10;}
	.st2{fill:#E7C7CE;}
	.st3{fill:#454545;}
	.st4{fill:#E6E4E2;}
</style>
<ellipse id="body" class="st0" cx="150" cy="135" rx="60" ry="69"/>
<circle id="head" class="st0" cx="150" cy="189" r="36.2"/>
<circle id="tail" class="st0" cx="150" cy="68" r="17"/>
<ellipse id="nose" class="st1" cx="150" cy="216.3" rx="15" ry="8.8"/>
<g id="ear">
	<ellipse transform="matrix(0.4675 -0.884 0.884 0.4675 -30.0399 230.1375)" class="st0" cx="176" cy="140" rx="33.1" ry="14.4"/>
	<ellipse transform="matrix(0.4675 -0.884 0.884 0.4675 -30.0399 230.1375)" class="st2" cx="176" cy="140" rx="20.7" ry="9"/>
</g>
<g id="ear_00000120541043926280595500000018240683944140740779_">
	<ellipse transform="matrix(0.884 -0.4675 0.4675 0.884 -51.0635 74.2111)" class="st0" cx="124" cy="140" rx="14.4" ry="33.1"/>
	<ellipse transform="matrix(0.884 -0.4675 0.4675 0.884 -51.0635 74.2111)" class="st2" cx="124" cy="140" rx="9" ry="20.7"/>
</g>
<g>
	<circle class="st3" cx="136" cy="193" r="8"/>
	<circle class="st4" cx="138.3" cy="196.3" r="4"/>
</g>
<g>
	<circle class="st3" cx="164" cy="193" r="8"/>
	<circle class="st4" cx="161.7" cy="196.3" r="4"/>
</g>
</svg>
