<?xml version="1.0" encoding="utf-8"?>
<!-- Generator: Adobe Illustrator 27.6.1, SVG Export Plug-In . SVG Version: 6.00 Build 0)  -->
<svg version="1.1" id="Layer_1" xmlns="http://www.w3.org/2000/svg" xmlns:xlink="http://www.w3.org/1999/xlink" x="0px" y="0px"
	 viewBox="0 0 300 300" style="enable-background:new 0 0 300 300;" xml:space="preserve">
<style type="text/css">
	.st0{fill:#755E58;stroke:#4A4A49;stroke-width:10;stroke-miterlimit:10;}
	.st1{fill:#837158;stroke:#4A4A49;stroke-width:10;stroke-miterlimit:10;}
	.st2{fill:#626262;stroke:#4A4A49;stroke-width:10;stroke-miterlimit:10;}
	.st3{fill:#4A4A49;}
</style>
<path class="st0" d="M262,211.9H38c-6.6,0-12-5.4-12-12v-97.8c0-6.6,5.4-12,12-12h224c6.6,0,12,5.4,12,12v97.8
	C274,206.5,268.6,211.9,262,211.9z"/>
<path class="st1" d="M83.6,220.6h-6.5c-6.6,0-12-5.4-12-12V93.4c0-6.6,5.4-12,12-12h6.5c6.6,0,12,5.4,12,12v115.2
	C95.6,215.2,90.2,220.6,83.6,220.6z"/>
<path class="st2" d="M168.5,233.6h-36.9c-6.6,0-12-5.4-12-12v-36.9c0-6.6,5.4-12,12-12h36.9c6.6,0,12,5.4,12,12v36.9
	C180.5,228.2,175.1,233.6,168.5,233.6z"/>
<g>
	<circle class="st3" cx="150" cy="193.6" r="9.6"/>
	<polygon class="st3" points="159.6,222.3 140.4,222.3 150,187.5 	"/>
</g>
<path class="st1" d="M222.8,220.6h-6.5c-6.6,0-12-5.4-12-12V93.4c0-6.6,5.4-12,12-12h6.5c6.6,0,12,5.4,12,12v115.2
	C234.8,215.2,229.4,220.6,222.8,220.6z"/>
</svg>
