<?xml version="1.0" encoding="utf-8"?>
<!-- Generator: Adobe Illustrator 22.0.0, SVG Export Plug-In . SVG Version: 6.00 Build 0)  -->
<svg version="1.1" id="Layer_1" xmlns="http://www.w3.org/2000/svg" xmlns:xlink="http://www.w3.org/1999/xlink" x="0px" y="0px"
	 viewBox="0 0 256 256" style="enable-background:new 0 0 256 256;" xml:space="preserve">
<style type="text/css">
	.st0{fill:#494947;}
	.st1{fill:#BE5555;}
	.st2{fill:#846E68;}
	.st3{fill:#6D91CC;}
</style>
<path class="st0" d="M57.2,113.5v29H211v-29H57.2z M201,132.5H67.2v-9H201V132.5z"/>
<path class="st1" d="M79.6,124.8c1.5,1.9,1.5,4.6,0,6.5l-11.3,14.2c-1,1.3-2.6,2.1-4.3,2.1H12.4c-4.3,0-6.7-4.9-4-8.3l6.2-8
	c1.5-1.9,1.5-4.5,0-6.4l-6.2-8c-2.6-3.4-0.2-8.3,4-8.3H64c1.7,0,3.3,0.8,4.3,2.1L79.6,124.8z"/>
<path class="st0" d="M248.6,120.2l-38.1-16.9c-3.1-1.4-6.6-0.9-9.2,1.4c-2.6,2.2-3.6,5.6-2.7,8.9c0.7,2.5,1.8,4.7,2.8,7
	c1.2,2.6,2.6,5.3,2.5,7.2v0.2v0.2c0.1,1.8-1.2,4.5-2.5,7.2c-1.1,2.2-2.2,4.5-2.8,6.9c-0.9,3.3,0.1,6.7,2.7,9
	c1.6,1.4,3.6,2.1,5.6,2.1c1.2,0,2.4-0.2,3.5-0.8l38.1-16.9c3.1-1.4,5-4.4,5-7.8S251.7,121.6,248.6,120.2z M209.4,142.2
	c0.4-0.8,0.8-1.6,1.2-2.5c1.7-3.5,3.6-7.4,3.5-11.7c0.1-4.2-1.8-8.2-3.4-11.7c-0.4-0.9-0.8-1.7-1.2-2.5l32,14.2L209.4,142.2z"/>
<rect x="15.7" y="123.5" class="st2" width="206.9" height="9"/>
<path class="st3" d="M210.6,139.7c1.7-3.5,3.6-7.4,3.5-11.7c0.1-4.2-1.8-8.2-3.4-11.7c-0.4-0.9-0.8-1.7-1.2-2.5l32,14.2l-32,14.2
	C209.7,141.4,210.1,140.5,210.6,139.7z"/>
<path class="st0" d="M64,152.5H12.4c-3.9,0-7.4-2.2-9.1-5.7s-1.3-7.6,1.1-10.7l6.2-8c0.1-0.1,0.1-0.2,0-0.2l-6.2-8
	c-2.4-3.1-2.9-7.2-1.1-10.7c1.7-3.5,5.2-5.7,9.1-5.7H64c3.2,0,6.2,1.4,8.2,4l11.3,14.2c3,3.7,3,9,0,12.7l-11.3,14.2
	C70.2,151,67.2,152.5,64,152.5z M12.4,113.5c-0.1,0-0.2,0.1-0.1,0.2l6.3,8c2.9,3.7,2.9,8.9,0,12.6l-6.2,8c0,0.1,0,0.2,0,0.2h51.7
	c0.2,0,0.3-0.1,0.4-0.2l11.3-14.2c0.1-0.1,0.1-0.2,0-0.2l-11.3-14.2c-0.1-0.1-0.3-0.2-0.4-0.2L12.4,113.5L12.4,113.5z"/>
<rect x="32.7" y="123.5" class="st2" width="171" height="9"/>
</svg>
