<?xml version="1.0" encoding="utf-8"?>
<!-- Generator: Adobe Illustrator 27.6.1, SVG Export Plug-In . SVG Version: 6.00 Build 0)  -->
<svg version="1.1" id="Layer_1" xmlns="http://www.w3.org/2000/svg" xmlns:xlink="http://www.w3.org/1999/xlink" x="0px" y="0px"
	 viewBox="0 0 300 300" style="enable-background:new 0 0 300 300;" xml:space="preserve">
<style type="text/css">
	.st0{fill:#F56E05;stroke:#4A4A4A;stroke-width:20;stroke-miterlimit:10;}
	.st1{fill:#F56E05;}
	.st2{fill:#FDBE0D;}
	.st3{fill:#FED310;}
</style>
<path class="st0" d="M270.8,158c-1.5,7.1-3.8,13.9-5.5,21c-4,17.6-16.1,27.5-31.5,34.6c-2.6,1.2-5.3,2.3-7.9,3.3
	c-4,1.4-7.3,3.2-8,8.1c-0.3,1.8-2.2,3.5-3.7,5c-4,4,0.3,10.9,5.4,10.6c1.7-0.1,3.4,0.1,5.1,0c3.6-0.1,4.2,1.3,2.7,4.4
	c-3.8,8.7-11.2,12-19.8,12.9c-12.7,1.3-25.2-1.6-37.4-4.8c-2.7-0.7-4.8-0.1-6.7,1.2c-2.2,1.4-3.5,3.1-0.5,5.6
	c1.7,1.5,3.5,2.7,5.3,4.2c3.5,2.8,3.7,6.1-0.3,8.1c-4.3,2.2-8.5,4.1-14,2c-9.4-3.6-19.8-3.5-29.2-7c-13.5-5-26-11.2-30.2-27
	c-1.7-6-6.3-10.5-10-15.5c-1.7-2.3-4.5-1.7-6.7-0.9c-2.2,0.7-1.5,3.2-1.4,4.8c0.1,1.6,0.5,3.3,0.9,4.8c1.1,3.4-0.7,3.5-3.2,3
	c-7.4-1.5-12.3-5.8-15.1-12.9c-0.4-1.2-0.5-2.4-1.3-3.4c-6.6-9-5.8-18.9-4.5-29.1c0.8-6.5,1.8-13.2,0.1-19.8c-0.5-2.2-0.1-5.5-4-5.5
	c-3.6,0-4.6,2-5.1,5.1c-0.4,3-0.9,6-1.9,8.9c-0.6,1.8-0.5,4.5-3.7,4.3c-2.7-0.1-3.7-1.7-4.6-4.1c-4.5-11.2-7.7-22.7-5.9-34.9
	c0.2-6.4-1.7-13.3,0.9-19.4c4.8-11.4,6.5-24.6,15-34c6.4-7.3,12.9-14.9,20.4-21.1c1.7-1.5,4.1-1.7,6.4-1.7c5.5,0,11-0.2,16.3-0.2
	c3.9,0,7.1-1.5,9.6-4.4c2.1-2.3,3.2-5.3,1.6-7.9c-1.5-2.6-4.6-3.1-7.6-2.8c-0.4,0-0.8,0.4-1.3,0.4c-2.3,0.2-4.8,1.3-6.2-1.9
	c-1.4-3.1,0.8-4.7,2.6-6c4.6-3.2,9.6-6.1,15.3-7.3c9.2-1.8,18.3-3.1,27.8-3c4.6,0,9.3-0.5,14-0.8c7.6-0.4,14.2,1.6,20.2,6.2
	c1.8,1.5,3.9,3,6.4,0.8c2.2-1.8,2-3.8,1.7-6.4c-1.2-10.2-1.4-12,9.1-10c8.7,1.7,15.8,6.2,22.8,11.2c3.2,2.3,6.3,4.6,9.8,6.2
	c8,3.5,12.6,9.9,16.9,17c4.7,7.8,9.3,15.9,7.4,25.5c-1.3,6.8-1.1,13.5,1.2,20c1.5,4.4,3.1,8.9,5.9,12.5c1.4,1.7,2.6,2.4,4.8,0.7
	c5.4-4.1,5.3-10.1,6.3-15.8c0.2-1.1,0-2.1,0-3.2c0-1.8-0.4-4,2.1-4.4c2.1-0.3,4,0.6,5.3,2.7c1.8,3.1,2.3,6.5,3.4,9.8
	c3.6,11,5.9,22.1,6.3,33.6C272.8,147,271.8,152.6,270.8,158z"/>
<path class="st1" d="M270.8,158c-1.5,7.1-3.8,13.9-5.5,21c-4,17.6-16.1,27.5-31.5,34.6c-2.6,1.2-5.3,2.3-7.9,3.3
	c-4,1.4-7.3,3.2-8,8.1c-0.3,1.8-2.2,3.5-3.7,5c-4,4,0.3,10.9,5.4,10.6c1.7-0.1,3.4,0.1,5.1,0c3.6-0.1,4.2,1.3,2.7,4.4
	c-3.8,8.7-11.2,12-19.8,12.9c-12.7,1.3-25.2-1.6-37.4-4.8c-2.7-0.7-4.8-0.1-6.7,1.2c-2.2,1.4-3.5,3.1-0.5,5.6
	c1.7,1.5,3.5,2.7,5.3,4.2c3.5,2.8,3.7,6.1-0.3,8.1c-4.3,2.2-8.5,4.1-14,2c-9.4-3.6-19.8-3.5-29.2-7c-13.5-5-26-11.2-30.2-27
	c-1.7-6-6.3-10.5-10-15.5c-1.7-2.3-4.5-1.7-6.7-0.9c-2.2,0.7-1.5,3.2-1.4,4.8c0.1,1.6,0.5,3.3,0.9,4.8c1.1,3.4-0.7,3.5-3.2,3
	c-7.4-1.5-12.3-5.8-15.1-12.9c-0.4-1.2-0.5-2.4-1.3-3.4c-6.6-9-5.8-18.9-4.5-29.1c0.8-6.5,1.8-13.2,0.1-19.8c-0.5-2.2-0.1-5.5-4-5.5
	c-3.6,0-4.6,2-5.1,5.1c-0.4,3-0.9,6-1.9,8.9c-0.6,1.8-0.5,4.5-3.7,4.3c-2.7-0.1-3.7-1.7-4.6-4.1c-4.5-11.2-7.7-22.7-5.9-34.9
	c0.2-6.4-1.7-13.3,0.9-19.4c4.8-11.4,6.5-24.6,15-34c6.4-7.3,12.9-14.9,20.4-21.1c1.7-1.5,4.1-1.7,6.4-1.7c5.5,0,11-0.2,16.3-0.2
	c3.9,0,7.1-1.5,9.6-4.4c2.1-2.3,3.2-5.3,1.6-7.9c-1.5-2.6-4.6-3.1-7.6-2.8c-0.4,0-0.8,0.4-1.3,0.4c-2.3,0.2-4.8,1.3-6.2-1.9
	c-1.4-3.1,0.8-4.7,2.6-6c4.6-3.2,9.6-6.1,15.3-7.3c9.2-1.8,18.3-3.1,27.8-3c4.6,0,9.3-0.5,14-0.8c7.6-0.4,14.2,1.6,20.2,6.2
	c1.8,1.5,3.9,3,6.4,0.8c2.2-1.8,2-3.8,1.7-6.4c-1.2-10.2-1.4-12,9.1-10c8.7,1.7,15.8,6.2,22.8,11.2c3.2,2.3,6.3,4.6,9.8,6.2
	c8,3.5,12.6,9.9,16.9,17c4.7,7.8,9.3,15.9,7.4,25.5c-1.3,6.8-1.1,13.5,1.2,20c1.5,4.4,3.1,8.9,5.9,12.5c1.4,1.7,2.6,2.4,4.8,0.7
	c5.4-4.1,5.3-10.1,6.3-15.8c0.2-1.1,0-2.1,0-3.2c0-1.8-0.4-4,2.1-4.4c2.1-0.3,4,0.6,5.3,2.7c1.8,3.1,2.3,6.5,3.4,9.8
	c3.6,11,5.9,22.1,6.3,33.6C272.8,147,271.8,152.6,270.8,158z"/>
<path class="st2" d="M254.8,171.4c-2.3,6.4-4.8,12.9-8.6,18.5c-5.4,8.1-13.9,12.1-22.3,15.7c-10.5,4.4-18,11.4-22.4,21.9
	c-1.5,3.7-1.6,7.4-1.5,11.2c0.1,5.4-2,7.1-7.3,6.1c-9.8-1.8-19.5-4.5-29.6-4.2c-8.3,0.3-14.6,6-15,14.1c-0.1,2.8-1.4,4.4-4.1,4.1
	c-15.1-1.9-28.9-6.5-37-20.5c-5.3-9.2-11.1-17.8-17.7-25.9c-4.7-5.8-9.4-7.2-15.1-3.7c-5.4,3.3-8.2,2.1-9-5.3
	c-0.6-6.4,0.7-12.7,1.4-19.1c0.3-3.5,0.4-7-0.5-10.4c0.2-0.2,0.4-0.4,0.5-0.6c-2.1-6.4-3-13.3-6.7-19.2c-3.7-5.8-7.1-7.4-13.5-5.3
	c-4.5,1.5-7.2-0.2-7.5-5c-0.2-2.5,0-5.1,0.7-7.7c3.3-11.1,5.8-22.3,11.7-32.5c3.8-6.5,9.2-11.7,14.1-17.2c4.6-5.2,11.1-5.7,17.3-6.8
	c10.1-1.9,19.6-5.3,27.5-12.2c4.1-3.7,5.2-7,3.5-12.1c-1.8-5.5-0.6-7.1,5.2-7.5c8-0.6,15.9-1.5,23.8-2.5c7.6-0.9,12.9,3.5,18.7,7.2
	c1.9,1.3,3.8,2.5,5.6,3.9c7.3,5.1,16-0.1,17.6-7c0.3-1.4,0.7-2.6,0.9-4c0.4-2.6,2.1-3.7,4.2-2.5c13.3,7.4,27.5,13.8,33.4,29.7
	c1.2,3.2,0.7,6.2,0.7,9.4c-0.1,4.7,0,9.1,3.3,13.3c4.2,5.3,2.7,12.2,3.9,18.4c1.4,7.6,3.8,14.6,9.7,20.1c4.5,4.2,6.1,4.5,11.6,1.7
	c6.5-3.5,8.2-2.2,8.9,5.4C261.7,151.6,258.3,161.5,254.8,171.4z"/>
<path class="st3" d="M223.5,148.8c0.4,9.5-0.9,19.2-5.6,28.2c-5.7,11.1-14.3,18.1-26.2,21.6c-3.6,1.1-7.2,2.4-10.6,4
	c-4.4,2-5.1,4.7-2.3,8.7c1.4,2,2.5,3.8,1.1,6.2c-1.7,2.6-4.1,2.1-6.5,1.7c-6.4-0.9-12.9-2.3-18.9-5.1c-1.6-0.7-3.5-1.2-5.2-1.6
	c-5.7-1.2-7.4,0.4-5.8,6.2c0.9,3.5-0.4,4.5-3.5,4.4c-0.9,0-1.9,0-2.7-0.2c-15.4-5.4-29.3-12.3-33.2-30.2c-0.3-1.5-0.9-3-1.4-4.3
	c-0.4-1.4-1.1-2.6-2.6-3c-2-0.3-1.8,1.6-2.5,2.6c-2.2,3.6-5,3.9-7.6,0.5c-5.7-7.4-8.1-15.6-4.5-24.7c1.6-3.9,2.3-7.8,3-11.9
	c0.2-1.3,0.3-2.5-1.1-3.2s-2.3,0.2-3.2,1.2c-1.7,1.9-2.8,5.5-6.2,4c-3.2-1.4-1.5-4.8-1.8-7.5c-2.8-19.3,6.3-34.1,18-47.7
	c5.1-5.9,11.6-9.8,19.9-9.1c3.5,0.3,7,0.1,10.4,0c3.4,0,4.7-1.3,3.3-4.8c-2.5-6.2-2-7.2,4.8-8c13.9-1.7,26.8,1.1,38.7,8.4
	c5.5,3.4,5.7,3.5,7.6-2.6c0.9-3.1,3.1-3.2,5.4-2.8c7.4,0.8,12.5,5.6,16.5,11.1c3,4.1,6,8.4,7.4,13.7c1.7,6.3,1.9,12.4,0.7,18.9
	c-1.2,5.8-3,11.9,1.3,17.4c0.9,1.3,1.6,2.6,3.5,2.5c1.9-0.1,2.8-1.5,3.5-3.2c0.2-0.7,0.4-1.5,0.6-2.2c0.5-1.7,0.1-4.2,2.7-3.9
	c2.7,0.3,2.8,2.7,3,5C223.5,142.2,223.5,145.3,223.5,148.8z"/>
</svg>
