<?xml version="1.0" encoding="utf-8"?>
<!-- Generator: Adobe Illustrator 27.3.1, SVG Export Plug-In . SVG Version: 6.00 Build 0)  -->
<svg version="1.1" id="Layer_1" xmlns="http://www.w3.org/2000/svg" xmlns:xlink="http://www.w3.org/1999/xlink" x="0px" y="0px"
	 viewBox="0 0 256 256" style="enable-background:new 0 0 256 256;" xml:space="preserve">
<style type="text/css">
	.st0{fill:#7E7E8F;stroke:#494947;stroke-width:10;stroke-miterlimit:10;}
</style>
<path class="st0" d="M160.9,148.1c1,1.8,2.2,3.5,3.6,5.1c0.6,0.8,0.8,1.9,0.5,2.8c-7,20.6-19.4,37.6-38.2,50.6
	c-12.6,8.7-28,15.6-46.4,20.4c-2.8,0.8-4.9-2.6-3-4.8c3.5-4.1,6.2-8.4,7.8-13.2c0.4-1.1,1.3-1.8,2.4-2l9.9-1.5
	c1.8-0.3,2.9-2,2.4-3.7l-1.5-5.6c-0.4-1.6,0.5-3.2,2.1-3.7l12.9-3.7c1.5-0.4,2.5-2,2.1-3.6l-1.1-4.5l0,0c-0.4-1.7,0.7-3.4,2.5-3.7
	c3.5-0.5,9-1.8,12.2-5c4.3-4.2,5.8-13.9,6.1-16.8c0.1-0.5,0-1.1-0.2-1.6l-5.1-11.6c-0.5-1.1-1.6-1.8-2.7-1.8h-26.7
	c-2.1,0-3.5-2-2.8-4c0.8-2.2,1.5-5.1,1.5-8.4c0-3.3-0.7-6.2-1.4-8.3c-0.7-1.9,0.8-4,2.8-4h26.7c1.2,0,2.2-0.7,2.7-1.8l5.1-11.6
	c0.2-0.5,0.3-1,0.2-1.6c-0.4-2.9-1.8-12.6-6.2-16.8c-3.3-3.2-8.8-4.5-12.3-5c-1.7-0.2-2.9-1.9-2.5-3.7l0,0l1.1-4.5
	c0.4-1.6-0.5-3.1-2.1-3.6l-12.9-3.7c-1.6-0.5-2.5-2.1-2.1-3.7l1.5-5.6c0.5-1.7-0.7-3.5-2.4-3.7L87.5,49c-1.1-0.2-2-0.9-2.4-2
	c-1.6-4.8-4.3-9.2-7.8-13.2c-1.9-2.2,0.2-5.6,3-4.8c18.5,4.9,33.9,11.8,46.5,20.5c18.8,13,31.2,30,38.2,50.6c0.3,1,0.1,2-0.5,2.8
	c-1.4,1.7-2.5,3.4-3.6,5.1c-1,1.7-0.2,3.8,1.6,4.4c7.3,2.5,12.8,7.2,16.6,14.3c0.5,0.9,0.5,1.9,0,2.8c-3.7,7.1-9.3,11.9-16.6,14.3
	C160.7,144.3,159.9,146.4,160.9,148.1z"/>
</svg>
