<?xml version="1.0" encoding="utf-8"?>
<!-- Generator: Adobe Illustrator 22.0.0, SVG Export Plug-In . SVG Version: 6.00 Build 0)  -->
<svg version="1.1" id="Layer_1" xmlns="http://www.w3.org/2000/svg" xmlns:xlink="http://www.w3.org/1999/xlink" x="0px" y="0px"
	 viewBox="0 0 256 256" style="enable-background:new 0 0 256 256;" xml:space="preserve">
<style type="text/css">
	.st0{fill:#DEC494;stroke:#4A4A4A;stroke-width:10;stroke-miterlimit:10;}
	.st1{fill:#EEEEEE;}
	.st2{fill:#8BA44C;}
	.st3{fill:#CD655B;}
	.st4{fill:#6D92CE;}
	.st5{fill:#F4B640;}
	.st6{fill:#4A4A4A;}
	.st7{fill:#A6954C;}
	.st8{fill:#CFA37F;}
	.st9{fill:#434343;}
	.st10{fill:#E6E5DF;}
</style>
<circle class="st0" cx="128" cy="128" r="90"/>
<path class="st0" d="M131,76h-6c-6.6,0-12-5.4-12-12V18c0-6.6,5.4-12,12-12h6c6.6,0,12,5.4,12,12v46C143,70.6,137.6,76,131,76z"/>
<path class="st1" d="M230.6,114.4c-2.7,10.2-11.9,29.3-40.7,62c-2.7,2.6-14.6,10.4-21.1,9.8c-2.2-0.2-0.2-2.9-1.9-4.8l-3.9-49
	c3.2,4.5,18.1,22.8,23.6,23.2c8.2,0.6,16.1-6,24.2-20.4l0.2-0.4c0-0.1,3.9-8.8,9.1-17c5.3-8.3,9.2-11.6,11.4-12.6
	C231.7,106.8,231.8,109.8,230.6,114.4z"/>
<path class="st2" d="M95.7,170c-1.7,1.9-8,16.7-10.2,16.9c-6.5,0.6-16.7-8-19.4-10.6c-41.3-46.9-42.3-65.9-41.4-71.2
	c4.9,2.1,14,15.1,20.3,29.6l0.2,0.4c8,14.4,15.9,21,24.2,20.4c5.5-0.4,11.7-9,14.9-13.5L95.7,170z"/>
<path class="st3" d="M235.3,200.6c-9.8,10.4-25.1,23.5-41.9,25.2c-10.2,1-20.1-2.4-29.2-10.2c-13-11.1-25.5-31.5-25.5-49.2l5-15.7
	h22.1c-0.6,11.1,0.2,35.4,16.7,47.9C194.6,207.9,212.3,208.6,235.3,200.6z"/>
<path class="st4" d="M112.3,150.8l4.3,16.4c0,17.7-11.7,37.4-24.8,48.5c-9.1,7.8-19,11.2-29.2,10.2c-16.8-1.7-32.2-14.8-41.9-25.2
	c23,8,40.7,7.4,52.9-1.9C90,186.3,90.8,162,90.3,150.9L112.3,150.8L112.3,150.8z"/>
<path class="st5" d="M145.2,165.3c1.1,13.5-3,50-13.7,76.2c-9.6-14.9-33.7-53.8-19.3-76.2H145.2z"/>
<path class="st6" d="M122.3,140.8H91.2l-1.4-6.9c-0.5-2.7-2.7-4.6-5.4-4.8c-2.7-0.2-5.2,1.3-6.1,3.9c-2.8,7.5-6.6,12.4-9.6,12.6
	c-1.4,0.1-6.5-0.7-14.5-15.1c-4.3-9.7-18.8-39.6-34-35.2l-1.1,0.3l-0.9,0.8c-3.3,3-16.9,21.5,40.6,86.7l0.2,0.3
	c0.2,0.2,3.9,3.8,9.2,6.8c-10.9,8.9-29.3,7.9-54.7-3.2c-3-1.3-6.4-0.4-8.4,2.1c-2,2.6-2,6.1,0,8.7c10.3,13.1,31.2,35.4,56.5,37.9
	c13.1,1.3,25.4-2.9,36.7-12.5c2.8-2.4,5.3-4.9,7.7-7.7c6,14.6,14.3,27.3,19.2,34.3c1.5,2.2,4,3.5,6.7,3.5c0.2,0,0.5,0,0.7,0
	c2.9-0.2,5.4-2,6.7-4.6c4.3-9.1,7.8-20.3,10.5-33.3c2.4,2.9,5,5.5,7.9,7.9c11.3,9.6,23.6,13.8,36.7,12.5
	c25.2-2.5,46.2-24.9,56.5-37.9l0,0c2-2.5,2-6.1,0-8.7c-2-2.5-5.4-3.4-8.4-2.1c-25.4,11-43.7,12.1-54.7,3.2c5.3-3,9-6.6,9.2-6.8
	l0.2-0.3c57.5-65.3,43.9-83.7,40.6-86.7l-0.9-0.8l-1.1-0.3c-15.2-4.4-29.7,25.5-34,35.2c-8.1,14.4-13.2,15.2-14.5,15.1
	c-3.1-0.2-6.9-5.2-9.7-12.7c-1-2.5-3.4-4.1-6.1-3.9c-2.7,0.2-4.9,2.1-5.4,4.8l-1.4,6.9h-31.1 M143.7,150.8H173l0.8-3.7
	c3.2,4.5,7.4,8.1,12.9,8.5c8.2,0.6,16.1-6,24.2-20.4l0.2-0.4c6.4-14.7,15.6-27.7,20.5-29.7c0.3,1.6,0.4,4.6-0.8,9.3
	c-2.7,10.2-11.9,29.3-40.7,62c-0.8,0.8-6.1,5.5-12,7.4l-6.7,2.1l4.1,5.6c6.1,8.2,14.7,13.1,25.5,14.3c9.7,1.1,21.2-0.6,34.4-5.2
	c-9.8,10.4-25.1,23.5-41.9,25.2c-10.3,1-20.1-2.4-29.2-10.2c-5.1-4.4-9.4-9.6-12.8-15.6l-7.1-12.6l-2.2,14.3
	c-2.5,15.8-6,29.2-10.6,39.7c-5.2-7.6-14.4-22.4-19.3-37.9l-3.3-10.3l-5.7,9.2c-3.1,5-7,9.5-11.4,13.2c-9.1,7.8-19,11.2-29.2,10.2
	c-16.8-1.7-32.2-14.8-41.9-25.2c13.2,4.6,24.8,6.4,34.4,5.2c10.9-1.3,19.5-6.1,25.5-14.3l4.1-5.6l-6.7-2.1c-5.9-1.9-11.2-6.6-12-7.4
	c-41.2-46.9-42.3-65.9-41.4-71.2c4.9,2.1,14,15.1,20.3,29.6l0.2,0.4c8,14.4,15.9,21,24.2,20.4c5.5-0.4,9.7-4,12.9-8.5l0.8,3.7h29.3"
	/>
<path class="st6" d="M185.5,145c0-19.6-25.3-35-57.5-35s-57.5,15.4-57.5,35H185.5z M128,170c-25.8,0-47.5-11.5-47.5-25
	s21.8-25,47.5-25s47.5,11.5,47.5,25S153.8,170,128,170z"/>
<ellipse class="st7" cx="128" cy="145" rx="47.5" ry="25"/>
<circle class="st8" cx="75" cy="80" r="12.5"/>
<circle class="st8" cx="181" cy="80" r="12.5"/>
<g>
	<circle class="st9" cx="102" cy="97" r="12.5"/>
	<circle class="st10" cx="105" cy="91" r="6"/>
</g>
<g>
	<circle class="st9" cx="154" cy="97" r="12.5"/>
	<circle class="st10" cx="151" cy="91" r="6"/>
</g>
</svg>
