<?xml version="1.0" encoding="utf-8"?>
<!-- Generator: Adobe Illustrator 22.0.0, SVG Export Plug-In . SVG Version: 6.00 Build 0)  -->
<svg version="1.1" id="Layer_1" xmlns="http://www.w3.org/2000/svg" xmlns:xlink="http://www.w3.org/1999/xlink" x="0px" y="0px"
	 viewBox="0 0 256 256" style="enable-background:new 0 0 256 256;" xml:space="preserve">
<style type="text/css">
	.st0{fill:#EDEDED;stroke:#494947;stroke-width:10;stroke-miterlimit:10;}
	.st1{fill:#6D92CD;stroke:#494947;stroke-width:10;stroke-miterlimit:10;}
</style>
<path class="st0" d="M217,142.2c-6,40.9-37.7,75-89,74.8c-51.3,0.2-83-33.9-89-74.8c-9.3-63.8,39.8-74.8,89-74.8
	S226.3,78.3,217,142.2z"/>
<path class="st1" d="M216.4,145.7c-7.2,39.3-38.6,71.5-88.4,71.3c-49.8,0.2-81.2-32-88.4-71.3c-0.5-2.5-0.5-5.1-0.1-7.6
	C47.6,91.2,128,94.7,128,94.7s80.4-3.5,88.5,43.4C216.9,140.6,216.9,143.2,216.4,145.7z"/>
<path class="st0" d="M163.3,163.5v13c0,1.9-1.6,3.5-3.5,3.5h-7.6l5.4,5.4c1.4,1.4,1.4,3.6,0,5l-9.2,9.2c-1.4,1.4-3.6,1.4-5,0
	l-5.4-5.4v7.6c0,1.9-1.6,3.5-3.5,3.5h-13c-1.9,0-3.5-1.6-3.5-3.5v-7.6l-5.4,5.4c-1.4,1.4-3.6,1.4-4.9,0l-9.2-9.2
	c-1.4-1.4-1.4-3.6,0-5l5.4-5.4h-7.6c-1.9,0-3.5-1.6-3.5-3.5v-13c0-1.9,1.6-3.5,3.5-3.5h7.6l-5.4-5.4c-1.4-1.4-1.4-3.6,0-5l9.2-9.2
	c1.4-1.4,3.6-1.4,5,0l5.4,5.4v-7.6c0-1.9,1.6-3.5,3.5-3.5h13c1.9,0,3.5,1.6,3.5,3.5v7.7l5.4-5.4c1.4-1.4,3.6-1.4,5,0l9.2,9.2
	c1.4,1.4,1.4,3.6,0,5l-5.4,5.4h7.6C161.7,160,163.3,161.6,163.3,163.5z"/>
</svg>
