<?xml version="1.0" encoding="utf-8"?>
<!-- Generator: Adobe Illustrator 22.0.0, SVG Export Plug-In . SVG Version: 6.00 Build 0)  -->
<svg version="1.1" id="Layer_1" xmlns="http://www.w3.org/2000/svg" xmlns:xlink="http://www.w3.org/1999/xlink" x="0px" y="0px"
	 viewBox="0 0 256 256" style="enable-background:new 0 0 256 256;" xml:space="preserve">
<style type="text/css">
	.st0{fill:#666964;stroke:#494947;stroke-width:10;stroke-miterlimit:10;}
	.st1{fill:#868685;stroke:#494947;stroke-width:10;stroke-miterlimit:10;}
	.st2{fill:#FBD84E;stroke:#494947;stroke-width:10;stroke-miterlimit:10;}
</style>
<path class="st0" d="M217,142.2c-6,40.9-37.7,75-89,74.8c-51.3,0.2-83-33.9-89-74.8c-9.3-63.8,39.8-62.8,89-62.8
	S226.3,78.3,217,142.2z"/>
<path class="st1" d="M176.9,45.6c8.4,1.7,24.1,7.8,41,28.8c1.9,2.3,3.3,5,4.2,7.9c2.6,8.2,7.5,26.1,5.9,38.3c-0.4,3.2-4,4.8-6.7,3.1
	c-11.4-7.3-38.9-28.9-49.6-72.8C171,47.8,173.8,45,176.9,45.6z"/>
<path class="st1" d="M79.1,45.6c-8.4,1.7-24.1,7.8-41,28.8c-1.9,2.3-3.3,5-4.2,7.9c-2.6,8.2-7.5,26.1-5.9,38.3
	c0.4,3.2,4,4.8,6.7,3.1c11.4-7.3,38.9-28.9,49.6-72.8C85,47.8,82.2,45,79.1,45.6z"/>
<path class="st1" d="M170.3,188.1C149.9,201.2,128,201,128,201s-21.9,0.2-42.3-12.9c-2.2-1.4-3.3-4-3-6.6c1.3-8.8,4.7-29.4,9.8-38.8
	c0,0,25-32.8,35.5-32.3c10.5-0.5,35.5,32.3,35.5,32.3c5,9.4,8.5,30,9.8,38.8C173.6,184.1,172.5,186.7,170.3,188.1z"/>
<path class="st1" d="M66.2,154c-6.9-4.4-14.2-4.3-14.2-4.3s-7.4-0.1-14.2,4.3c-0.7,0.5-1.1,1.3-1,2.2c0.4,3,1.6,9.9,3.3,13.1
	c0,0,8.4,11,11.9,10.9c3.5,0.2,11.9-10.9,11.9-10.9c1.7-3.2,2.8-10.1,3.3-13.1C67.4,155.3,67,154.5,66.2,154z"/>
<path class="st1" d="M218.2,154c-6.9-4.4-14.2-4.3-14.2-4.3s-7.4-0.1-14.2,4.3c-0.7,0.5-1.1,1.3-1,2.2c0.4,3,1.6,9.9,3.3,13.1
	c0,0,8.4,11,11.9,10.9c3.5,0.2,11.9-10.9,11.9-10.9c1.7-3.2,2.8-10.1,3.3-13.1C219.4,155.3,219,154.5,218.2,154z"/>
<path class="st2" d="M228.1,104.5l-62.8-7l29.4,27.9c4.1,3.9-0.5,10.5-5.6,8l-50.8-25.2l-7,15.4c-1.3,2.8-5.2,2.8-6.5,0l-7-15.4
	L67,133.4c-5.1,2.5-9.7-4.1-5.6-8l29.4-27.9l-62.8,7c-5.9,0.7-7.6-7.8-1.9-9.5l89.5-26.8l11-13c0.8-0.9,2.2-0.9,3,0l11,13L230,95
	C235.7,96.7,234,105.2,228.1,104.5z"/>
</svg>
