<?xml version="1.0" encoding="utf-8"?>
<!-- Generator: Adobe Illustrator 22.0.0, SVG Export Plug-In . SVG Version: 6.00 Build 0)  -->
<svg version="1.1" id="Layer_1" xmlns="http://www.w3.org/2000/svg" xmlns:xlink="http://www.w3.org/1999/xlink" x="0px" y="0px"
	 viewBox="0 0 256 256" style="enable-background:new 0 0 256 256;" xml:space="preserve">
<style type="text/css">
	.st0{fill:#626262;stroke:#494947;stroke-width:10;stroke-miterlimit:10;}
	.st1{fill:#BE5555;stroke:#494947;stroke-width:10;stroke-miterlimit:10;}
</style>
<path class="st0" d="M213.5,154.1c-2.9,11.2-7.9,21.8-15.1,30.9c-9.5,12.1-22.5,20.9-36.8,26.5c-9.3,3.6-19.1,6-28.9,7.4
	c-3.1,0.4-6.3,0.4-9.4,0c-9.9-1.4-19.6-3.7-28.9-7.4c-14.3-5.6-27.2-14.4-36.8-26.5c-7.2-9.1-12.2-19.7-15.1-30.9
	c-4.7-18.2-5.8-37.4-4.5-56.1c1-13.7,5-27.6,14.6-37.7c6.2-6.5,14.3-10.9,23-13.1c0.4-0.1,4.3-0.6,7.5-0.9c2.1-0.3,3.8,1.7,3.3,3.8
	L79.2,76c-0.5,1.8,1.2,3.5,3,2.9l27.3-9.1c3.6-1.2,5.5-5.1,4.1-8.7l-2.2-5.9c-0.8-2.1,0.3-4.5,2.4-5.4l10.3-4.3c2.5-1,5.3-1,7.9,0
	l10.3,4.3c2.1,0.9,3.2,3.3,2.4,5.4l-2.2,5.9c-1.3,3.5,0.6,7.5,4.1,8.7l27.3,9.1c1.8,0.6,3.5-1,3-2.9l-7.1-25.9
	c-0.6-2.1,1.1-4.1,3.3-3.8c3.2,0.4,7,0.8,7.5,0.9c8.7,2.1,16.8,6.5,23,13.1C213,70.4,217,84.3,218,98
	C219.2,116.7,218.1,135.9,213.5,154.1z"/>
<path class="st1" d="M201.3,132.6c-4.9-1.5-15.7-6.1-15.2-17.5s11.6-19.3,22.8-16.9c12.8,2.8,28.6,16.4,31,65.5
	c0.1,2.2-2.5,3.4-4.1,1.8l-30.2-30.4C204.4,134,202.9,133.1,201.3,132.6z"/>
<path class="st1" d="M54.7,132.6c4.9-1.5,15.7-6.1,15.2-17.5S58.3,95.8,47.1,98.2c-12.8,2.8-28.6,16.4-31,65.5
	c-0.1,2.2,2.5,3.4,4.1,1.8l30.2-30.4C51.6,134,53.1,133.1,54.7,132.6z"/>
<path class="st1" d="M182.7,182.5c-3.9-1.2-12.6-4.8-12.2-14c0.4-9.1,9.3-15.4,18.2-13.5c10.2,2.2,22.8,13.1,24.8,52.3
	c0.1,1.7-2,2.7-3.3,1.5l-24.1-24.3C185.1,183.6,184,182.9,182.7,182.5z"/>
<path class="st1" d="M73.3,182.5c3.9-1.2,12.6-4.8,12.2-14c-0.4-9.1-9.3-15.4-18.2-13.5c-10.2,2.2-22.8,13.1-24.8,52.3
	c-0.1,1.7,2,2.7,3.3,1.5l24.1-24.3C70.9,183.6,72,182.9,73.3,182.5z"/>
<path class="st1" d="M149.5,170.8c14,23-0.3,21.3-0.3,21.3c11,18.8-4.5,18.3-4.5,18.3c5,34.3-9.5,16.3-9.5,16.3
	c-0.2,2.1-0.5,3.9-1,5.5c-1.8,6.2-10.7,6.2-12.5,0c-0.5-1.6-0.8-3.5-1-5.5c0,0-14.5,18-9.5-16.3c0,0-15.5,0.5-4.5-18.3
	c0,0-14.3,1.8-0.3-21.3c0,0-15.8-5.8,1.5-20.3c0,0-17.3-3.5,3-17.3c0,0-16.8-12.3,8.5-17.3c0,0-0.8-15,8.5-15s8.5,15,8.5,15
	c25.3,5,8.5,17.3,8.5,17.3c20.3,13.8,3,17.3,3,17.3C165.3,165,149.5,170.8,149.5,170.8z"/>
</svg>
