<?xml version="1.0" encoding="utf-8"?>
<!-- Generator: Adobe Illustrator 22.0.0, SVG Export Plug-In . SVG Version: 6.00 Build 0)  -->
<svg version="1.1" id="Layer_1" xmlns="http://www.w3.org/2000/svg" xmlns:xlink="http://www.w3.org/1999/xlink" x="0px" y="0px"
	 viewBox="0 0 256 256" style="enable-background:new 0 0 256 256;" xml:space="preserve">
<style type="text/css">
	.st0{fill:#919191;stroke:#494947;stroke-width:10;stroke-miterlimit:10;}
	.st1{fill:#C3C4C9;stroke:#494947;stroke-width:10;stroke-miterlimit:10;}
	.st2{fill:#DBCBAE;stroke:#494947;stroke-width:10;stroke-miterlimit:10;}
</style>
<path class="st0" d="M217,142.2c-6,40.9-37.7,75-89,74.8c-51.3,0.2-83-33.9-89-74.8c-9.3-63.8,39.8-74.8,89-74.8
	S226.3,78.3,217,142.2z"/>
<path class="st1" d="M165.7,210c-11,4.5-23.6,7.1-37.7,7c-14.1,0-26.7-2.5-37.7-7c-15-6.2-18.8-25.8-7.3-37.3l39.3-39.1
	c3.1-3.1,8.2-3.1,11.3,0l39.3,39.1C184.5,184.2,180.7,203.8,165.7,210z"/>
<path class="st2" d="M202.6,119.4c7.8-1.1,22-4.2,37.4-12.4c3-1.6,6.7,0.4,7,3.8c0.8,11.3-2.5,32.6-36.4,38.5
	c-3.2,0.6-6.6,0.3-9.6-1c-5.1-2.2-10.5-7.7-6.9-21.3C195.2,123,198.5,120,202.6,119.4z"/>
<path class="st2" d="M53.4,119.4c-7.8-1.1-22-4.2-37.4-12.4c-3-1.6-6.7,0.4-7,3.8c-0.8,11.3,2.5,32.6,36.4,38.5
	c3.2,0.6,6.6,0.3,9.6-1c5.1-2.2,10.5-7.7,6.9-21.3C60.8,123,57.5,120,53.4,119.4z"/>
<path class="st2" d="M145,152.8c0.1,16.3,3.4,63.1,37.8,64.7c4.5,0.2,8.3-3.4,8.3-7.9c0-2.6-0.4-5.8-1.6-9.8c-0.9-3-2.2-6-3.6-8.8
	c-2.8-5.4-9.5-19.7-11.1-36.5c-0.7-7-5.3-13.2-12-15.4c-3.5-1.1-7.4-1.1-11.3,1.4C147.3,143.2,144.9,147.9,145,152.8z"/>
<path class="st2" d="M111,152.8c-0.1,16.3-3.4,63.1-37.8,64.7c-4.5,0.2-8.3-3.4-8.3-7.9c0-2.6,0.4-5.8,1.6-9.8c0.9-3,2.2-6,3.6-8.8
	c2.8-5.4,9.5-19.7,11.1-36.5c0.7-7,5.3-13.2,12-15.4c3.5-1.1,7.4-1.1,11.3,1.4C108.7,143.2,111.1,147.9,111,152.8z"/>
<path class="st1" d="M194.9,69.6l0.1,30.9c0,2.5-2.6,4.2-4.9,3.1l-23-11.4c-2.5-1.3-2.9-4.7-0.8-6.6L189,66.7
	C191.4,64.9,194.9,66.6,194.9,69.6z"/>
<path class="st1" d="M61.1,69.6L61,100.5c0,2.5,2.6,4.2,4.9,3.1l23-11.4c2.5-1.3,2.9-4.7,0.8-6.6L66.9,66.8
	C64.6,64.9,61.1,66.6,61.1,69.6z"/>
<path class="st1" d="M162.3,107c0.1,1.3-0.9,4.4-2.2,4.4h-19c-1.1,0-2.1-2.8-2.2-3.9C137.7,98,128,98,128,98s-9.7,0-10.9,9.4
	c-0.1,1.1-1.1,3.9-2.2,3.9h-19c-1.3,0-2.3-3.1-2.2-4.4c0.4-7,4.3-27.3,34.3-27.3S161.9,99.9,162.3,107z"/>
</svg>
