<?xml version="1.0" encoding="utf-8"?>
<!-- Generator: Adobe Illustrator 22.0.0, SVG Export Plug-In . SVG Version: 6.00 Build 0)  -->
<svg version="1.1" id="Layer_1" xmlns="http://www.w3.org/2000/svg" xmlns:xlink="http://www.w3.org/1999/xlink" x="0px" y="0px"
	 viewBox="0 0 256 256" style="enable-background:new 0 0 256 256;" xml:space="preserve">
<style type="text/css">
	.st0{fill:#51515C;stroke:#494947;stroke-width:10;stroke-miterlimit:10;}
	.st1{fill:#676775;stroke:#494947;stroke-width:10;stroke-miterlimit:10;}
	.st2{fill:#939393;stroke:#494947;stroke-width:10;stroke-miterlimit:10;}
	.st3{fill:#444444;}
	.st4{fill:#C37373;}
	.st5{fill:#7D7D8E;stroke:#494947;stroke-width:10;stroke-miterlimit:10;}
</style>
<path class="st0" d="M197.1,70.3C210.1,85.9,218,106,218,128c0,49.7-40.3,90-90,90s-90-40.3-90-90c0-22,7.9-42.1,20.9-57.7H197.1z"
	/>
<circle class="st1" cx="74" cy="73.5" r="29.8"/>
<circle class="st1" cx="182" cy="73.5" r="29.8"/>
<path class="st2" d="M55.3,109.4C63.6,77,93,53,128,53s64.4,24,72.7,56.4H55.3z"/>
<g>
	<circle class="st3" cx="99.5" cy="79" r="12"/>
	<circle class="st4" cx="100" cy="73" r="6.5"/>
</g>
<g>
	<circle class="st3" cx="156.5" cy="79" r="12"/>
	<circle class="st4" cx="156" cy="73" r="6.5"/>
</g>
<path class="st5" d="M214.1,83.3c0.4,8.5-1.7,16.9-5.7,24.3c-3.2,5.8-8.2,14-15.9,23.4c-7.6,9.4-16.2,18-25.5,25.8
	c-7,5.8-19.5,17.1-34.5,34.5c-2.4,2.7-6.6,2.7-9,0C108.5,174,96,162.7,89,156.8c-9.3-7.8-17.9-16.3-25.5-25.8s-12.7-17.6-15.9-23.4
	c-4-7.4-6.1-15.8-5.7-24.3c0.7-14,7.4-19,11.9-20.8c2-0.8,4.3-0.1,5.5,1.7c12,19.1,48.4,33.8,62.8,39c3.8,1.4,8,1.4,11.9,0
	c14.4-5.2,50.8-19.8,62.8-39c1.2-1.8,3.5-2.5,5.5-1.7C206.7,64.3,213.4,69.3,214.1,83.3z"/>
</svg>
