<?xml version="1.0" encoding="utf-8"?>
<!-- Generator: Adobe Illustrator 27.3.1, SVG Export Plug-In . SVG Version: 6.00 Build 0)  -->
<svg version="1.1" id="Layer_1" xmlns="http://www.w3.org/2000/svg" xmlns:xlink="http://www.w3.org/1999/xlink" x="0px" y="0px"
	 viewBox="0 0 256 256" style="enable-background:new 0 0 256 256;" xml:space="preserve">
<style type="text/css">
	.st0{fill:#C0A26E;stroke:#494947;stroke-width:10;stroke-miterlimit:10;}
	.st1{fill:#857553;}
	.st2{fill:none;stroke:#494947;stroke-width:10;stroke-miterlimit:10;}
</style>
<path class="st0" d="M229,165.2l-11.9,13.1c-1,1.1-2.2,2.2-3.4,3.1c-6.8,4.9-13.9,9.5-24.2,13.2c-29.2,10.3-64.2,10.6-75.6,8.3
	c-6.4-1.3-13.8-3.2-13.8-3.2c-2.3-0.2-4.5-0.9-6.6-1.8l-12.8-5.8c-1.4-0.6-2.8-1.4-4-2.3l-25.2-18.6c-1.7-1.3-3.3-2.8-4.6-4.6
	l-3.7-5.1c-0.5-0.6-1-1.2-1.5-1.8l-15.5-16.8c-0.3-0.3-0.6-0.7-0.9-1.1l-5-6.1c-1.6-2-2.9-4.3-3.7-6.7l-0.9-2.8
	c-0.7-2-1.1-4.1-1.1-6.2l-0.4-9.7c0-2.5,0.2-5,1-7.4c1.5-4.7,3.9-12.6,3.9-13.3s5.2-8.6,8.3-13c1.4-2,3.1-3.8,5-5.2l10.4-7.7
	c1.3-0.9,2.6-1.7,4-2.4l10.6-4.8c1.3-0.6,2.7-1,4-1.4l11.2-2.6c2.2-0.5,4.4-0.7,6.7-0.5c8.5,2.2,17,4.4,25.5,6.5
	c2.5,0.6,5.9,1.2,9.9,1.2s7.6-0.7,10.2-1.4c24.6-7.6,46.4-7.7,58.6-3.3c5.7,2,13.7,6.6,26.2,13.7c2.6,1.5,4.8,3.4,6.6,5.8l18.9,24.6
	c2.3,3.1,3.8,6.7,4.3,10.5l2.2,16.7c0.4,3.3,0,6.7-1,9.9l-7.4,21.6c-1,2.8-2.5,5.4-4.5,7.6L229,165.2L229,165.2L229,165.2z"/>
<path class="st1" d="M34.7,89.1l5.7-5.7c0.8-0.8,1.9-1.2,3-1.2h4.8c2.4,0,4.3,1.9,4.3,4.3v9.2c0.2,1.6,1.2,11.3,0,12.5l-9.6,9.6
	c-0.8,0.8-1.9,1.2-3,1.2H32c-2.4,0-4.3-1.9-4.3-4.3v-13.1c0-0.8,0.2-1.5,0.6-2.2L34,90c0.2-0.3,0.4-0.6,0.6-0.8L34.7,89.1L34.7,89.1
	z"/>
<path class="st1" d="M143.6,66.4l-0.7,0.6c-2.8,2.2-1.8,6.7,1.7,7.5l2.7,0.6c3.1,0.7,5.9-2.2,5.1-5.3l-0.3-1.2
	c-0.5-1.9-2.2-3.1-4.1-3.1h-1.7C145.3,65.5,144.4,65.8,143.6,66.4z"/>
<path class="st1" d="M143.4,93c0.8-0.7,1.9-1.1,3.1-1c4.1,0.3,14,0.8,14-0.1s-1.4-3.4-2.5-5.4s-2.3-2.3-3.9-2.2L143,84.9
	c-0.4,0-0.8,0-1.1,0.2l-16.4,5.5c-2.7,0.9-3.8,4.2-2.1,6.5l3.3,4.5c1.5,2,4.4,2.4,6.3,0.7l10.6-9.3L143.4,93L143.4,93z"/>
<path class="st1" d="M189.2,72.8l6.2,3.5c0.9,0.5,1.4,1.2,1.6,2.1l0.6,3.7c0.3,1.8-1.3,3.5-3.5,3.9l-8.2,1.4h-0.4
	c-1.5,0.4-10.6,2.7-11.9,2l-10.3-5.8c-0.9-0.5-1.4-1.2-1.6-2.1l-1-6c-0.3-1.8,1.3-3.5,3.5-3.9l12.5-2.1c0.7-0.1,1.5,0,2.2,0.1
	l9.6,2.9c0.3,0,0.6,0.2,0.8,0.4L189.2,72.8L189.2,72.8z"/>
<path class="st1" d="M224.6,152.1l-0.6-0.4c-2.5-1.8-6.6-0.3-6.9,2.5l-0.3,2.2c-0.3,2.5,2.8,4.2,5.7,3l1.1-0.4
	c1.7-0.7,2.7-2.2,2.5-3.6l-0.2-1.3c-0.1-0.7-0.6-1.4-1.2-1.9L224.6,152.1L224.6,152.1z"/>
<path class="st1" d="M199.3,156.2c0.8,0.5,1.3,1.3,1.4,2.2c0.3,3.2,1,10.8,1.9,10.6s3.1-1.6,4.8-2.8s1.9-2.1,1.6-3.3l-2-8.4
	c0-0.3-0.2-0.6-0.3-0.8l-7.3-11.6c-1.2-1.9-4.5-2.2-6.5-0.6l-3.9,3.2c-1.8,1.4-1.7,3.7,0.1,4.9L199.3,156.2L199.3,156.2L199.3,156.2
	z"/>
<path class="st1" d="M208.5,102.1l2.8,16.7c0.3,1.8-1.3,3.5-3.5,3.9l-5.9,1c-2.2,0.4-4.3-0.8-4.6-2.6l-1.2-7.2
	c-0.2-0.9-0.8-1.8-1.8-2.2l-4.8-2.3c-2.6-1.2-2.4-4.4,0.3-5.7l4.2-2.1l7.5-3.3c1.9-0.9,4.2-0.4,5.3,1l1.1,1.5
	C208.2,101.2,208.3,101.6,208.5,102.1L208.5,102.1L208.5,102.1z"/>
<path class="st2" d="M179.2,90.9l-26.3,12.2c-0.6,0.3-0.4,1.1,0.2,1.1c3.5,0,8.1,0.7,13.1,2.5c5.9,2.1,10.2,4.9,12.9,7.1"/>
<path class="st2" d="M78.6,90.9l26.3,12.2c0.6,0.3,0.4,1.1-0.2,1.1c-3.5,0-8.1,0.7-13.1,2.5c-5.9,2.1-10.2,4.9-12.9,7.1"/>
<path class="st1" d="M62.6,155.7L95,139.8c0.4-0.2,0.7-0.4,1-0.6c1.1-0.8,5-2.2,11.3,11.1c5.7,11.9-3.3,12.7-8.3,12.3
	c-2.1-0.2-4.1,0.5-5.8,1.7l-1.8,1.3c-0.2,0.2-0.5,0.2-0.8,0.2l-23.4-2.7c-0.1,0-0.2,0-0.3-0.1l-4.5-2.1
	C60.1,159.9,60.2,156.7,62.6,155.7L62.6,155.7C62.5,155.7,62.5,155.7,62.6,155.7z"/>
<path class="st1" d="M40,127l-0.5,0.8c-2.3,3.4-0.4,9.1,3.2,9.5l2.8,0.4c3.2,0.4,5.3-3.8,3.8-7.8l-0.5-1.5c-0.9-2.3-2.8-3.7-4.6-3.4
	l-1.6,0.3c-0.9,0.1-1.8,0.8-2.4,1.6L40,127L40,127z"/>
<path class="st1" d="M110.6,190.4c-2.3-5.5-1.9-11.7,1.2-16.9c4.8-8.2,12.3-17.5,16.4-5.9c6.4,18.1-2,21.4-2,21.4
	S113.9,198.5,110.6,190.4L110.6,190.4z"/>
<path class="st1" d="M173.9,175.6c-0.5-1.7-2.6-2.4-3.9-1.1c-3.4,3.1-8.4,8.6-1.4,7.3C174,180.7,174.5,177.9,173.9,175.6z"/>
<path class="st1" d="M163.2,157.1l-4.6,5.5c-1,1.2,0,2.9,1.5,2.7c6.8-0.7,19.7-2.1,19.9-2.2c1.2-0.7,2.2-7.8-5.2-8.2
	c-3.7-0.2-4.6-0.9-4.5-1.7c0.2-1.4-0.8-2.7-2.2-2.6c-0.2,0-0.3,0-0.5,0.1c-1.7,0.3-2.4,2-2.7,3.3
	C164.5,155.1,163.9,156.2,163.2,157.1z"/>
<path class="st1" d="M128.3,133.8l-0.4-3.6c-0.1-0.5,0.1-0.9,0.4-1.3l1.4-1.3c0.7-0.7,1.9-0.5,2.7,0.3l3,3l0.1,0.2
	c0.6,0.5,4.3,3.6,4.3,4.4l0.6,6c0.1,0.5-0.1,0.9-0.4,1.3l-2.2,2.2c-0.7,0.7-1.9,0.5-2.7-0.3l-4.6-4.6c-0.2-0.3-0.4-0.6-0.6-1
	l-1.6-4.9C128.3,134.1,128.3,133.9,128.3,133.8L128.3,133.8L128.3,133.8z"/>
</svg>
