<?xml version="1.0" encoding="utf-8"?>
<!-- Generator: Adobe Illustrator 27.3.1, SVG Export Plug-In . SVG Version: 6.00 Build 0)  -->
<svg version="1.1" id="Layer_1" xmlns="http://www.w3.org/2000/svg" xmlns:xlink="http://www.w3.org/1999/xlink" x="0px" y="0px"
	 viewBox="0 0 256 256" style="enable-background:new 0 0 256 256;" xml:space="preserve">
<style type="text/css">
	.st0{fill:#6D92CD;stroke:#494947;stroke-width:10;stroke-miterlimit:10;}
	.st1{fill:#35589A;stroke:#494947;stroke-width:10;stroke-miterlimit:10;}
	.st2{fill:#929081;stroke:#494947;stroke-width:10;stroke-miterlimit:10;}
	.st3{fill:#E6E3DD;}
	.st4{display:none;fill:#EDEDED;stroke:#494947;stroke-width:10;stroke-miterlimit:10;}
</style>
<path class="st0" d="M59,127.3c-7.2-67.9,30.9-79.7,69-79.7s76.3,11.6,69,79.7H59z"/>
<path class="st1" d="M216.3,138.5c-7.2,43.3-38.6,78.8-88.4,78.5c-49.8,0.2-81.2-35.3-88.4-78.5c-0.5-2.8-0.5-5.6,0-8.4
	C47.6,78.4,128,82.3,128,82.3s80.4-3.9,88.5,47.8C216.9,132.8,216.9,135.7,216.3,138.5L216.3,138.5z"/>
<g>
	<path class="st2" d="M134.3,68.7L134.3,68.7c9.9-5.2,21.5,3.2,19.6,14.2l0,0c-0.8,4.4,0.7,8.9,3.9,12l0,0c8,7.8,3.6,21.4-7.5,23
		l0,0c-4.4,0.6-8.2,3.4-10.2,7.4l0,0c-5,10-19.3,10-24.2,0l0,0c-2-4-5.8-6.8-10.2-7.4l0,0c-11.1-1.6-15.5-15.2-7.5-23l0,0
		c3.2-3.1,4.6-7.6,3.9-12l0,0c-1.9-11,9.7-19.5,19.6-14.2l0,0C125.6,70.8,130.4,70.8,134.3,68.7z"/>
	<path class="st3" d="M129.4,83.3l9.5-5c2.3-1.2,4.9,0.7,4.5,3.3l-1.8,10.5c-0.2,1,0.2,2,0.9,2.7l7.7,7.5c1.8,1.8,0.8,4.9-1.7,5.3
		l-10.6,1.5c-1,0.1-1.9,0.8-2.3,1.7l-4.7,9.6c-1.1,2.3-4.4,2.3-5.5,0l-4.7-9.6c-0.4-0.9-1.3-1.5-2.3-1.7l-10.6-1.5
		c-2.5-0.4-3.5-3.5-1.7-5.3l7.7-7.5c0.7-0.7,1.1-1.7,0.9-2.7l-1.8-10.5c-0.4-2.5,2.2-4.4,4.5-3.3l9.5,5
		C127.5,83.8,128.5,83.8,129.4,83.3z"/>
</g>
<path class="st4" d="M217,142.2c-6,40.9-37.7,75-89,74.8c-51.3,0.2-83-33.9-89-74.8c-9.3-63.8,39.8-74.8,89-74.8
	S226.3,78.3,217,142.2z"/>
</svg>
