<?xml version="1.0" encoding="utf-8"?>
<!-- Generator: Adobe Illustrator 28.4.1, SVG Export Plug-In . SVG Version: 6.00 Build 0)  -->
<svg version="1.1" id="Layer_1" xmlns="http://www.w3.org/2000/svg" xmlns:xlink="http://www.w3.org/1999/xlink" x="0px" y="0px"
	 viewBox="0 0 256 256" style="enable-background:new 0 0 256 256;" xml:space="preserve">
<style type="text/css">
	.st0{fill:#4CAA00;stroke:#494947;stroke-width:10;stroke-miterlimit:10;}
	.st1{fill:#FF0D14;stroke:#494947;stroke-width:10;stroke-miterlimit:10;}
	.st2{fill:#2159FF;stroke:#494947;stroke-width:10;stroke-miterlimit:10;}
	.st3{fill:#F99D1C;stroke:#494947;stroke-width:10;stroke-miterlimit:10;}
	.st4{fill:#F6CE44;stroke:#494947;stroke-width:10;stroke-miterlimit:10;}
</style>
<path class="st0" d="M60.5,111V67.4c0-31.1,30.2-56.4,67.4-56.4l0,0c37.3,0,67.6,25.2,67.6,56.4V111H60.5z"/>
<g>
	<path class="st1" d="M169.3,56.5L128,128L86.7,56.5c12.1-7,26.2-11,41.3-11S157.1,49.5,169.3,56.5z"/>
	<path class="st2" d="M128,128H45.5c0-30.5,16.6-57.2,41.2-71.5L128,128z"/>
	<path class="st3" d="M128,128l-41.3,71.5C62,185.2,45.5,158.6,45.5,128H128z"/>
	<path class="st1" d="M169.3,199.5c-12.1,7-26.2,11-41.3,11s-29.1-4-41.3-11L128,128L169.3,199.5z"/>
	<path class="st2" d="M210.5,128c0,30.5-16.6,57.2-41.2,71.5L128,128H210.5z"/>
	<path class="st3" d="M210.5,128H128l41.3-71.5C193.9,70.8,210.5,97.5,210.5,128z"/>
</g>
<g>
	<ellipse class="st0" cx="128" cy="95" rx="11.3" ry="28.3"/>
	<ellipse class="st0" cx="128" cy="161" rx="11.3" ry="28.3"/>
	<circle class="st4" cx="128" cy="128" r="9"/>
</g>
</svg>
