<?xml version="1.0" encoding="utf-8"?>
<!-- Generator: Adobe Illustrator 22.0.0, SVG Export Plug-In . SVG Version: 6.00 Build 0)  -->
<svg version="1.1" id="Layer_1" xmlns="http://www.w3.org/2000/svg" xmlns:xlink="http://www.w3.org/1999/xlink" x="0px" y="0px"
	 viewBox="0 0 256 256" style="enable-background:new 0 0 256 256;" xml:space="preserve">
<style type="text/css">
	.st0{fill:#FFA954;stroke:#494947;stroke-width:10;stroke-miterlimit:10;}
	.st1{fill:#434343;}
	.st2{fill:#E6E5DF;}
</style>
<path class="st0" d="M244.1,184.6c-1.2,8.1-30.5-26.5-33.6-19.1c-4.4,10.3-10.8,19.8-18.9,27.6c-0.8,0.8-1,2-0.4,2.9
	c12.5,21.5,17.2,48.1,10.1,51.6c-8.3,4.1-48-33-58.3-31.6c-4.8,0.7-9.8,1-15,1s-10.2-0.3-15-1c-10.2-1.4-50,35.7-58.3,31.6
	c-7.1-3.5-2.4-30.2,10.1-51.6c0.6-1,0.4-2.1-0.4-2.9c-8.1-7.8-14.5-17.2-18.9-27.6c-3.2-7.4-32.5,27.2-33.6,19.1
	c-1.3-9.2-8.6-36,25.3-65.9c0.8-0.7,1.4-1.7,1.5-2.8c6.4-40.8,47.8-48.5,89.3-48.5s82.9,7.8,89.3,48.5c0.2,1.1,0.7,2.1,1.5,2.8
	C252.7,148.6,245.4,175.5,244.1,184.6z"/>
<g>
	<circle class="st1" cx="99" cy="97" r="12.5"/>
	<circle class="st2" cx="102" cy="91" r="6"/>
</g>
<g>
	<circle class="st1" cx="157" cy="97" r="12.5"/>
	<circle class="st2" cx="154" cy="91" r="6"/>
</g>
</svg>
