<?xml version="1.0" encoding="utf-8"?>
<!-- Generator: Adobe Illustrator 22.0.0, SVG Export Plug-In . SVG Version: 6.00 Build 0)  -->
<svg version="1.1" id="Layer_1" xmlns="http://www.w3.org/2000/svg" xmlns:xlink="http://www.w3.org/1999/xlink" x="0px" y="0px"
	 viewBox="0 0 256 256" style="enable-background:new 0 0 256 256;" xml:space="preserve">
<style type="text/css">
	.st0{fill:#939599;stroke:#494947;stroke-width:10;stroke-miterlimit:10;}
	.st1{fill:#C3C4C9;stroke:#494947;stroke-width:10;stroke-miterlimit:10;}
	.st2{fill:#B5B7BD;stroke:#494947;stroke-width:10;stroke-miterlimit:10;}
	.st3{fill:#929292;stroke:#494947;stroke-width:10;stroke-miterlimit:10;}
	.st4{fill:#C5C7CB;stroke:#494947;stroke-width:10;stroke-miterlimit:10;}
</style>
<path class="st0" d="M217,142.2c-6,40.9-37.7,75-89,74.8c-51.3,0.2-83-33.9-89-74.8c-9.3-63.8,39.8-74.8,89-74.8
	S226.3,78.3,217,142.2z"/>
<path class="st1" d="M63.7,93.5l24.6-13.4c1.3-0.7,1.5-2.4,0.5-3.4L64.3,50.9c-1.4-1.4-3.8-0.5-3.8,1.5v39.2
	C60.5,93.3,62.3,94.3,63.7,93.5z"/>
<path class="st1" d="M192.3,93.5l-24.6-13.4c-1.3-0.7-1.5-2.4-0.5-3.4l24.6-25.8c1.4-1.4,3.8-0.5,3.8,1.5v39.2
	C195.5,93.3,193.7,94.3,192.3,93.5z"/>
<circle class="st2" cx="128" cy="146.2" r="60.5"/>
<circle class="st3" cx="128" cy="155" r="51.7"/>
<ellipse class="st4" cx="128" cy="151.8" rx="16.3" ry="65.5"/>
</svg>
