<?xml version="1.0" encoding="utf-8"?>
<!-- Generator: Adobe Illustrator 22.0.0, SVG Export Plug-In . SVG Version: 6.00 Build 0)  -->
<svg version="1.1" id="Layer_1" xmlns="http://www.w3.org/2000/svg" xmlns:xlink="http://www.w3.org/1999/xlink" x="0px" y="0px"
	 viewBox="0 0 256 256" style="enable-background:new 0 0 256 256;" xml:space="preserve">
<style type="text/css">
	.st0{fill:#767675;stroke:#494947;stroke-width:10;stroke-miterlimit:10;}
	.st1{fill:#89A54C;stroke:#494947;stroke-width:10;stroke-miterlimit:10;}
	.st2{fill:#AAAAAA;stroke:#494947;stroke-width:10;stroke-miterlimit:10;}
	.st3{fill:#626262;}
	.st4{fill:#D0E0E3;stroke:#494947;stroke-width:10;stroke-miterlimit:10;}
</style>
<path class="st0" d="M217,145.2c-6,40.9-37.7,75-89,74.8c-51.3,0.2-83-33.9-89-74.8c-9.3-63.8,39.8-71.8,89-71.8
	S226.3,81.3,217,145.2z"/>
<path class="st1" d="M170.3,188.1C149.9,201.2,128,201,128,201s-21.9,0.2-42.3-12.9c-2.2-1.4-3.3-4-3-6.6c1.3-8.8,4.7-29.4,9.8-38.8
	c0,0,25-32.8,35.5-32.3c10.5-0.5,35.5,32.3,35.5,32.3c5,9.4,8.5,30,9.8,38.8C173.6,184.1,172.5,186.7,170.3,188.1z"/>
<path class="st1" d="M197.2,106.1c-6.9-4.4-14.2-4.3-14.2-4.3s-7.4-0.1-14.2,4.3c-0.7,0.5-1.1,1.3-1,2.2c0.4,3,1.6,9.9,3.3,13.1
	c0,0,8.4,11,11.9,10.9c3.5,0.2,11.9-10.9,11.9-10.9c1.7-3.2,2.8-10.1,3.3-13.1C198.4,107.4,198,106.6,197.2,106.1z"/>
<path class="st1" d="M87.2,106.1c-6.9-4.4-14.2-4.3-14.2-4.3s-7.4-0.1-14.2,4.3c-0.7,0.5-1.1,1.3-1,2.2c0.4,3,1.6,9.9,3.3,13.1
	c0,0,8.4,11,11.9,10.9c3.5,0.2,11.9-10.9,11.9-10.9c1.7-3.2,2.8-10.1,3.3-13.1C88.4,107.4,88,106.6,87.2,106.1z"/>
<path class="st2" d="M164.1,27.6v10.9c0,6.6-3.3,12.5-8.4,16.1v21h-55.2v-21c-5.1-3.6-8.4-9.5-8.4-16.1V27.6
	c0-10.8,8.8-19.6,19.6-19.6h32.9C155.2,8,164.1,16.8,164.1,27.6z"/>
<path class="st3" d="M159.5,27.4v11.1c0,8.2-6.7,14.9-14.8,14.9h-33.3c-8.2,0-14.8-6.7-14.8-14.9V27.4c0-8.2,6.7-14.9,14.8-14.9
	h33.3C152.8,12.5,159.5,19.2,159.5,27.4z"/>
<path class="st4" d="M148.7,86.5l27.9,3c5.9,0.6,11.3-3.8,11.9-9.7l0.4-4.2c0.6-6-3.7-11.4-9.7-12l-27.9-3
	c-5.9-0.6-11.3,3.8-11.9,9.7l-0.4,4.2C138.4,80.4,142.8,85.9,148.7,86.5z"/>
<path class="st4" d="M107.3,86.5l-27.9,3c-5.9,0.6-11.3-3.8-11.9-9.7l-0.4-4.2c-0.6-6,3.7-11.4,9.7-12l27.9-3
	c5.9-0.6,11.3,3.8,11.9,9.7l0.4,4.2C117.6,80.4,113.2,85.9,107.3,86.5z"/>
</svg>
