<?xml version="1.0" encoding="utf-8"?>
<!-- Generator: Adobe Illustrator 22.0.0, SVG Export Plug-In . SVG Version: 6.00 Build 0)  -->
<svg version="1.1" id="Layer_1" xmlns="http://www.w3.org/2000/svg" xmlns:xlink="http://www.w3.org/1999/xlink" x="0px" y="0px"
	 viewBox="0 0 256 256" style="enable-background:new 0 0 256 256;" xml:space="preserve">
<style type="text/css">
	.st0{fill:#BEBEBE;stroke:#494947;stroke-width:10;stroke-miterlimit:10;}
	.st1{fill:#C15555;stroke:#494947;stroke-width:10;stroke-miterlimit:10;}
	.st2{fill:#919191;stroke:#494947;stroke-width:10;stroke-miterlimit:10;}
	.st3{fill:#666964;stroke:#494947;stroke-width:10;stroke-miterlimit:10;}
</style>
<path class="st0" d="M128,163.8l-15.9,1.6c-0.4-1.1-0.8-2.1-1.1-3.2L128,163.8z"/>
<path class="st0" d="M210.5,182.6c0,0-6.2,3.5-17.7-14.7c-0.5,17.3-2.2,45.2-8.3,50.7c0,0-8.5,4.9-24.2-26.4
	c-0.9,16-3,34.1-7.8,38.4c0,0-8.6,5-24.5-27.1c-15.9,32-24.5,27.1-24.5,27.1c-4.8-4.3-6.9-22.4-7.8-38.4
	c-15.7,31.3-24.2,26.4-24.2,26.4c-6.1-5.5-7.9-33.4-8.3-50.7c-11.5,18.2-17.7,14.7-17.7,14.7c-9-8-8.5-64.5-8.5-64.5l50.1-4.9
	c-5.9,17.3-11.2,30.3-15.9,40.1l41.9-4.1c-1.9,5.7-3.8,10.9-5.6,15.7l4.7-0.5l15.9-1.6l15.9,1.6l4.7,0.5c-1.8-4.8-3.7-10-5.6-15.7
	l41.9,4.1c-4.7-9.8-10-22.8-15.9-40.1l50.1,4.9C219,118.1,219.5,174.6,210.5,182.6z"/>
<path class="st0" d="M145,162.2c-0.4,1.1-0.8,2.2-1.1,3.2l-15.9-1.6L145,162.2z"/>
<path class="st1" d="M123.3,97.1l-38.8,18.7c-2.9,1.4-5,4.1-5.8,7.3l-9.6,42.1c-0.7,3.2,0,6.5,2.1,9l27,33.8c2,2.5,5,4,8.3,4h43.1
	c3.3,0,6.3-1.5,8.3-4l26.9-33.8c2-2.5,2.7-5.9,2.1-9l-9.6-42.1c-0.7-3.2-2.8-5.8-5.8-7.3l-38.8-18.7
	C129.6,95.6,126.2,95.6,123.3,97.1z"/>
<path class="st2" d="M123.3,118.1l-30.2,14.5c-2.9,1.4-5,4.1-5.8,7.3l-7.5,32.6c-0.7,3.2,0,6.5,2.1,9l20.9,26.2c2,2.5,5,4,8.3,4
	h33.4c3.3,0,6.3-1.5,8.3-4l20.9-26.2c2-2.5,2.7-5.9,2.1-9l-7.5-32.6c-0.7-3.2-2.8-5.8-5.8-7.3l-30.2-14.5
	C129.6,116.8,126.2,116.8,123.3,118.1z"/>
<path class="st3" d="M80.6,47.3c-13.8,4.1-43.9,18-41.3,59.7H67c0,0,19.1-35.3,21.8-52.6C89.5,49.7,85.1,45.9,80.6,47.3z"/>
<path class="st3" d="M175.4,47.3c13.8,4.1,43.9,18,41.3,59.7H189c0,0-19.1-35.3-21.8-52.6C166.5,49.7,170.9,45.9,175.4,47.3z"/>
<path class="st3" d="M222.8,131.4c-9.7-3.5-36.6-12.3-64.2-14.7c-8-0.7-15.7,3-20.2,9.7L132,136c-1.9,2.9-6.2,2.9-8.1,0l-6.4-9.6
	c-4.5-6.7-12.2-10.4-20.2-9.7c-27.6,2.4-54.5,11.2-64.2,14.7c-1.8,0.6-3.5-0.9-3.2-2.7c4.5-24,17.3-34.5,17.3-34.5
	c8-10.6,26.6-14.5,38.8-15.9c16-1.9,30.6-10.3,39.9-23.4c0,0,0,0,0-0.1c0.9-1.3,2.9-1.3,3.9,0c0,0,0,0,0,0.1
	c9.3,13.2,23.9,21.6,39.9,23.4c12.1,1.4,30.8,5.3,38.8,15.9c0,0,12.9,10.5,17.3,34.5C226.3,130.5,224.6,132,222.8,131.4z"/>
<path class="st1" d="M136.7,96.7l-5.4,7.6c-1.6,2.3-5,2.3-6.6,0l-5.4-7.6c-1.6-2.2-1.6-5.2,0-7.4l5.4-7.6c1.6-2.3,5-2.3,6.6,0
	l5.4,7.6C138.3,91.5,138.3,94.5,136.7,96.7z"/>
</svg>
