<?xml version="1.0" encoding="utf-8"?>
<!-- Generator: Adobe Illustrator 22.0.0, SVG Export Plug-In . SVG Version: 6.00 Build 0)  -->
<svg version="1.1" id="Layer_1" xmlns="http://www.w3.org/2000/svg" xmlns:xlink="http://www.w3.org/1999/xlink" x="0px" y="0px"
	 viewBox="0 0 256 256" style="enable-background:new 0 0 256 256;" xml:space="preserve">
<style type="text/css">
	.st0{fill:#929292;stroke:#494947;stroke-width:10;stroke-miterlimit:10;}
	.st1{fill:#C7C5C1;stroke:#494947;stroke-width:10;stroke-miterlimit:10;}
	.st2{fill:#A6A6A6;stroke:#494947;stroke-width:10;stroke-miterlimit:10;}
	.st3{fill:#BE5555;stroke:#494947;stroke-width:10;stroke-miterlimit:10;}
</style>
<path class="st0" d="M217,142.2c-6,40.9-37.7,75-89,74.8c-51.3,0.2-83-33.9-89-74.8c-9.3-63.8,39.8-74.8,89-74.8
	S226.3,78.3,217,142.2z"/>
<circle class="st1" cx="128" cy="150" r="60"/>
<circle class="st2" cx="128" cy="162.3" r="50"/>
<path class="st3" d="M156.4,175.6c0,0-4.4,46.9-20.5,61.5c-4.5,4.1-11.2,4.1-15.7,0c-16.1-14.6-20.5-61.5-20.5-61.5
	c-2.8-38.5,28.4-36,28.4-36S159.2,137.1,156.4,175.6z"/>
</svg>
