<?xml version="1.0" encoding="utf-8"?>
<!-- Generator: Adobe Illustrator 22.0.0, SVG Export Plug-In . SVG Version: 6.00 Build 0)  -->
<svg version="1.1" id="Layer_1" xmlns="http://www.w3.org/2000/svg" xmlns:xlink="http://www.w3.org/1999/xlink" x="0px" y="0px"
	 viewBox="0 0 256 256" style="enable-background:new 0 0 256 256;" xml:space="preserve">
<style type="text/css">
	.st0{fill:#80837D;stroke:#494947;stroke-width:10;stroke-miterlimit:10;}
	.st1{fill:#626262;stroke:#494947;stroke-width:10;stroke-miterlimit:10;}
	.st2{fill:#D3D378;stroke:#494947;stroke-width:10;stroke-miterlimit:10;}
</style>
<path class="st0" d="M211.3,149.6c0.1,14.5-5.7,28.3-15.4,39.2c-19.7,22-48.9,35.2-61.6,40.2c-4,1.6-8.5,1.6-12.6,0
	c-12.7-5-41.9-18.1-61.6-40.2c-9.7-10.9-15.5-24.7-15.4-39.2c0.1-21.1,12.3-46.2,78.1-25.2c3.4,1.1,7,1.1,10.3,0
	C199,103.4,211.1,128.5,211.3,149.6z"/>
<path class="st1" d="M219.4,129.1c-0.8,17.2-4.1,32.5-6.3,41.2c-0.7,2.7-4.3,3.1-5.6,0.6l-14-27.4c-1-2-3.5-2.9-5.6-2.1
	c-29.3,11.4-49.3,47-56.7,62.2c-1.3,2.6-5.1,2.6-6.3,0c-7.4-15.2-27.4-50.8-56.7-62.2c-2.2-0.8-4.6,0.1-5.6,2.1l-14,27.4
	c-1.3,2.5-4.9,2.1-5.6-0.6c-2.2-8.7-5.5-24.1-6.3-41.2c-0.8-18.3,4.8-36.5,16.3-50.8c7.6-9.4,17.9-18.1,30.7-19.6
	c2.3-0.3,4.3,1.6,4.3,3.9c0,5-1.5,14.5-9.3,28.6c-0.9,1.6,0.3,3.5,2.1,3.5l47.4-1.2l47.4,1.2c1.8,0,3-1.9,2.1-3.5
	c-7.8-14.1-9.3-23.6-9.3-28.6c0-2.3,2-4.1,4.3-3.9c12.8,1.5,23.1,10.2,30.7,19.6C214.7,92.6,220.3,110.7,219.4,129.1z"/>
<path class="st2" d="M197.3,109.6L156.9,96c-2.4-0.8-5,0.8-5,3.1v29.4c0,2.6-2.4,4.7-5.3,4.7h-37.2c-2.9,0-5.3-2.1-5.3-4.7V99.1
	c0-2.3-2.6-3.9-5-3.1l-40.5,13.5c-1.9,0.6-3.5-1.5-2-2.8l67.6-59.1c2.1-1.9,5.3-1.9,7.4,0l67.6,59.1
	C200.8,108,199.3,110.2,197.3,109.6z"/>
</svg>
