<?xml version="1.0" encoding="utf-8"?>
<!-- Generator: Adobe Illustrator 22.0.0, SVG Export Plug-In . SVG Version: 6.00 Build 0)  -->
<svg version="1.1" id="Layer_1" xmlns="http://www.w3.org/2000/svg" xmlns:xlink="http://www.w3.org/1999/xlink" x="0px" y="0px"
	 viewBox="0 0 256 256" style="enable-background:new 0 0 256 256;" xml:space="preserve">
<style type="text/css">
	.st0{fill:#A5974C;stroke:#494947;stroke-width:10;stroke-miterlimit:10;}
	.st1{fill:#939393;stroke:#494947;stroke-width:10;stroke-miterlimit:10;}
	.st2{fill:#C9B758;stroke:#494947;stroke-width:10;stroke-miterlimit:10;}
</style>
<path class="st0" d="M217,142.2c-6,40.9-37.7,75-89,74.8c-51.3,0.2-83-33.9-89-74.8c-9.3-63.8,39.8-74.8,89-74.8
	S226.3,78.3,217,142.2z"/>
<path class="st1" d="M196.6,112.8v44.4c0,2.8,2.9,4.7,5.4,3.5l45.2-22.2c2.9-1.4,2.9-5.6,0-7L202,109.3
	C199.5,108.1,196.6,110,196.6,112.8z"/>
<path class="st1" d="M59.4,112.8v44.4c0,2.8-2.9,4.7-5.4,3.5L8.8,138.5c-2.9-1.4-2.9-5.6,0-7L54,109.3
	C56.5,108.1,59.4,110,59.4,112.8z"/>
<path class="st1" d="M57.7,54.2L57.6,90c0,3,3,4.9,5.6,3.6l26.6-13.2c2.9-1.5,3.4-5.5,0.9-7.6L64.5,50.9
	C61.8,48.7,57.7,50.6,57.7,54.2z"/>
<path class="st1" d="M198.3,54.2l0.1,35.8c0,3-3,4.9-5.6,3.6l-26.6-13.2c-2.9-1.5-3.4-5.5-0.9-7.6l26.3-21.9
	C194.2,48.7,198.3,50.6,198.3,54.2z"/>
<path class="st1" d="M123.6,91.9l-36.9,17.8c-2.8,1.3-4.8,3.9-5.5,6.9l-9.1,40c-0.7,3,0,6.2,2,8.6l25.6,32.1
	c1.9,2.4,4.8,3.8,7.9,3.8h41c3.1,0,6-1.4,7.9-3.8l25.6-32.1c1.9-2.4,2.6-5.6,2-8.6l-9.1-40c-0.7-3-2.7-5.5-5.5-6.9l-36.9-17.8
	C129.6,90.5,126.4,90.5,123.6,91.9z"/>
<path class="st2" d="M123.6,111.9l-28.7,13.8c-2.8,1.3-4.8,3.9-5.5,6.9l-7.1,31c-0.7,3,0,6.2,2,8.6l19.9,24.9
	c1.9,2.4,4.8,3.8,7.9,3.8h31.8c3.1,0,6-1.4,7.9-3.8l19.9-24.9c1.9-2.4,2.6-5.6,2-8.6l-7.1-31c-0.7-3-2.7-5.5-5.5-6.9l-28.7-13.8
	C129.6,110.6,126.4,110.6,123.6,111.9z"/>
</svg>
